<svg width="205" height="205" viewBox="0 0 205 205" fill="none" xmlns="http://www.w3.org/2000/svg">
<path d="M151.931 66.2522C147.089 66.2522 143.15 70.1633 143.15 74.9712V95.9319C143.15 99.5116 142.378 102.997 140.919 106.187C140.307 105.089 139.451 104.127 138.395 103.389C135.051 101.051 130.508 101.42 127.592 104.268L115.675 115.903C111.385 120.092 108.925 125.921 108.925 131.895V157.475C108.925 158.72 109.942 159.73 111.196 159.73C112.45 159.73 113.468 158.72 113.468 157.475V131.894C113.468 127.122 115.433 122.465 118.862 119.118L130.777 107.483C132.127 106.164 134.23 105.994 135.779 107.076C136.704 107.723 137.284 108.693 137.414 109.81C137.543 110.925 137.201 112.002 136.448 112.84L124.665 125.979C123.831 126.909 123.914 128.334 124.851 129.162C125.788 129.99 127.224 129.908 128.058 128.978L139.841 115.84C139.842 115.838 139.843 115.837 139.844 115.836C144.905 110.401 147.692 103.335 147.692 95.9319V74.9712C147.692 72.6505 149.594 70.7624 151.931 70.7624C154.268 70.7624 156.17 72.6505 156.17 74.9712V104.232C156.17 113.604 153.661 122.841 148.914 130.944L138.505 148.712C137.874 149.789 138.242 151.169 139.326 151.795C139.685 152.002 140.078 152.101 140.466 152.101C141.249 152.101 142.01 151.699 142.432 150.979L152.841 133.211C157.991 124.421 160.713 114.401 160.713 104.232V74.9712C160.713 70.1633 156.774 66.2522 151.931 66.2522V66.2522Z" fill="#9792E3"/>
<path d="M135.898 155.389C135.301 155.389 134.717 155.63 134.292 156.05C133.87 156.469 133.627 157.051 133.627 157.644C133.627 158.239 133.869 158.819 134.292 159.238C134.715 159.66 135.301 159.899 135.898 159.899C136.498 159.899 137.082 159.66 137.503 159.238C137.929 158.819 138.17 158.237 138.17 157.644C138.17 157.051 137.929 156.469 137.503 156.05C137.082 155.63 136.495 155.389 135.898 155.389Z" fill="#9792E3"/>
<path d="M77.5389 104.268C74.6226 101.42 70.0786 101.05 66.7346 103.389C65.6802 104.127 64.8238 105.088 64.2105 106.186C62.7524 102.997 61.9811 99.5108 61.9811 95.9319V74.9704C61.9811 70.1633 58.0415 66.2522 53.1993 66.2522C48.3563 66.2522 44.4167 70.1633 44.4167 74.9712V81.5105C44.4167 82.7564 45.4338 83.7661 46.6878 83.7661C47.9427 83.7661 48.9598 82.7564 48.9598 81.5105V74.9712C48.9598 72.6505 50.8608 70.7624 53.1985 70.7624C55.5361 70.7624 57.438 72.6505 57.438 74.9712V95.9319C57.438 103.335 60.2248 110.401 65.2853 115.836C65.2862 115.837 65.2879 115.838 65.2888 115.84L77.0721 128.978C77.9055 129.908 79.3414 129.99 80.2786 129.162C81.2158 128.334 81.2993 126.909 80.465 125.979L68.6817 112.84C67.9291 112.002 67.5857 110.925 67.7161 109.81C67.8457 108.693 68.4261 107.723 69.3509 107.076C70.8987 105.994 73.002 106.165 74.3528 107.483L86.2683 119.118C89.6959 122.465 91.6617 127.122 91.6617 131.895V157.475C91.6617 158.72 92.6787 159.73 93.9336 159.73C95.1877 159.73 96.2047 158.72 96.2047 157.475V131.894C96.2047 125.921 93.7446 120.092 89.4536 115.902L77.5389 104.268Z" fill="#9792E3"/>
<path d="M56.2159 130.943C51.4687 122.841 48.9598 113.604 48.9598 104.232V99.5504C48.9598 98.3055 47.9427 97.2958 46.6887 97.2958C45.4338 97.2958 44.4167 98.3055 44.4167 99.5504V104.232C44.4167 114.4 47.1386 124.421 52.2888 133.211L67.2679 158.778C67.6895 159.498 68.451 159.9 69.2337 159.9C69.6207 159.9 70.0138 159.801 70.3733 159.594C71.4578 158.968 71.8252 157.588 71.1951 156.511L56.2159 130.943Z" fill="#9792E3"/>
<path d="M132.789 74.4223C132.789 57.8768 119.231 44.4167 102.565 44.4167C85.8991 44.4167 72.3408 57.8768 72.3408 74.4223C72.3408 90.967 85.8991 104.427 102.565 104.427C119.231 104.427 132.789 90.967 132.789 74.4223V74.4223ZM102.565 99.9178C88.4045 99.9178 76.8839 88.4807 76.8839 74.4223C76.8839 60.364 88.4045 48.9269 102.565 48.9269C116.726 48.9269 128.247 60.364 128.247 74.4223C128.247 88.4798 116.726 99.9178 102.565 99.9178Z" fill="#9792E3"/>
<path d="M95.8364 71.3448C97.0905 71.3448 98.1075 70.3351 98.1075 69.0892C98.1075 66.55 96.0272 64.4839 93.4686 64.4839C90.9108 64.4839 88.8297 66.55 88.8297 69.0892C88.8297 70.3351 89.8467 71.3448 91.1008 71.3448C92.3548 71.3448 93.3719 70.3351 93.3719 69.0892C93.3719 69.0364 93.4153 68.9932 93.4686 68.9932C93.5218 68.9932 93.5653 69.0364 93.5653 69.0892C93.5653 70.3351 94.5824 71.3448 95.8364 71.3448Z" fill="#9792E3"/>
<path d="M112.45 64.4839C109.893 64.4839 107.811 66.55 107.811 69.0892C107.811 70.3351 108.828 71.3448 110.083 71.3448C111.337 71.3448 112.354 70.3351 112.354 69.0892C112.354 69.0364 112.397 68.9932 112.45 68.9932C112.504 68.9932 112.547 69.0364 112.547 69.0892C112.547 70.3351 113.564 71.3448 114.818 71.3448C116.073 71.3448 117.09 70.3351 117.09 69.0892C117.09 66.55 115.009 64.4839 112.45 64.4839V64.4839Z" fill="#9792E3"/>
<path d="M109.814 78.566C108.56 78.566 107.543 79.5757 107.543 80.8215C107.543 83.3308 105.487 85.3722 102.959 85.3722C100.432 85.3722 98.3756 83.3308 98.3756 80.8215C98.3756 79.5757 97.3585 78.566 96.1044 78.566C94.8495 78.566 93.8325 79.5757 93.8325 80.8215C93.8325 85.8172 97.9274 89.8815 102.959 89.8815C107.992 89.8815 112.086 85.8172 112.086 80.8215C112.086 79.5757 111.069 78.566 109.814 78.566Z" fill="#9792E3"/>
<circle cx="102.5" cy="102.5" r="97.5" stroke="#9792E3" stroke-width="10"/>
</svg>
