<svg width="206" height="206" viewBox="0 0 206 206" fill="none" xmlns="http://www.w3.org/2000/svg">
<circle cx="103" cy="103" r="98" stroke="#9792E3" stroke-width="10"/>
<path d="M119.37 151.577C120.55 151.577 121.506 150.621 121.506 149.441C121.506 137.242 125.791 125.847 133.571 117.354C140.576 109.707 144.434 99.7805 144.434 89.4026C144.434 77.6508 139.414 66.4092 130.663 58.5598C121.789 50.6019 110.328 46.9395 98.3678 48.2382C79.2246 50.3265 63.8606 65.7489 61.8359 84.9078C60.5904 96.6887 64.3999 108.444 72.2868 117.159C80.1655 125.866 84.5048 137.319 84.5048 149.441C84.5048 150.621 85.4614 151.577 86.6411 151.577H87.8647V156.774H86.2698C85.09 156.774 84.1335 157.731 84.1335 158.91C84.1335 160.09 85.09 161.047 86.2698 161.047H87.8647V164.854C87.8647 165.42 88.09 165.964 88.4906 166.364L95.3031 173.177C95.7037 173.578 96.2472 173.803 96.8136 173.803H109.218C109.785 173.803 110.328 173.578 110.729 173.177L117.541 166.364C117.942 165.964 118.167 165.42 118.167 164.854V161.047H119.762C120.942 161.047 121.898 160.09 121.898 158.91C121.898 157.731 120.942 156.774 119.762 156.774H118.167V151.577H119.37ZM75.4548 114.292C68.2782 106.361 64.9506 96.0858 66.0855 85.3563C67.8995 68.1815 81.6717 54.3581 98.831 52.4857C109.568 51.3112 119.851 54.6032 127.81 61.7413C135.659 68.7802 140.161 78.8629 140.161 89.4026C140.161 98.7092 136.702 107.611 130.421 114.469C122.374 123.252 117.749 134.842 117.274 147.305H105.152V101.917C110.714 100.906 114.947 96.0368 114.947 90.188C114.947 83.6091 109.595 78.2569 103.016 78.2569C96.437 78.2569 91.0848 83.6091 91.0848 90.188C91.0848 96.0368 95.3181 100.906 100.88 101.917V147.305H88.7367C88.26 134.93 83.5859 123.277 75.4548 114.292ZM103.016 97.8466C98.7934 97.8466 95.3574 94.4105 95.3574 90.188C95.3574 85.9655 98.7934 82.5295 103.016 82.5295C107.238 82.5295 110.674 85.9655 110.674 90.188C110.674 94.4105 107.238 97.8466 103.016 97.8466ZM113.895 163.97L108.334 169.53H97.6981L92.1373 163.97V161.047H113.895V163.97ZM113.895 156.774H92.1373V151.577H113.895V156.774Z" fill="#9792E3"/>
<path d="M104.249 41.8575V34.9437C104.249 33.764 103.292 32.8074 102.113 32.8074C100.933 32.8074 99.9763 33.764 99.9763 34.9437V41.8575C99.9763 43.0372 100.933 43.9938 102.113 43.9938C103.292 43.9938 104.249 43.0372 104.249 41.8575Z" fill="#9792E3"/>
<path d="M78.5237 50.799C78.8856 50.799 79.2539 50.7072 79.5897 50.5132C80.612 49.9228 80.9614 48.6168 80.3721 47.5946L76.9152 41.6071C76.3227 40.5848 75.0167 40.2323 73.9966 40.8248C72.9743 41.4152 72.6249 42.7211 73.2142 43.7434L76.6711 49.7309C77.0675 50.4162 77.7852 50.799 78.5237 50.799Z" fill="#9792E3"/>
<path d="M60.4256 68.2024C60.7626 68.3964 61.1297 68.4882 61.4917 68.4882C62.2302 68.4882 62.9479 68.1053 63.3443 67.42C63.9336 66.3978 63.5831 65.0918 62.5619 64.5014L56.5734 61.0445C55.548 60.4531 54.2452 60.8046 53.6548 61.8268C53.0654 62.8491 53.4159 64.1551 54.4371 64.7455L60.4256 68.2024Z" fill="#9792E3"/>
<path d="M46.5408 90.1849C46.5408 91.3647 47.4973 92.3212 48.6771 92.3212H55.5908C56.7706 92.3212 57.7271 91.3647 57.7271 90.1849C57.7271 89.0052 56.7706 88.0486 55.5908 88.0486H48.6771C47.4973 88.0486 46.5408 89.0052 46.5408 90.1849Z" fill="#9792E3"/>
<path d="M56.4107 119.37C56.7727 119.37 57.1409 119.278 57.4768 119.084L63.4642 115.628C64.4865 115.037 64.8359 113.731 64.2466 112.709C63.6551 111.687 62.3471 111.336 61.3279 111.927L55.3405 115.383C54.3182 115.974 53.9688 117.28 54.5581 118.302C54.9545 118.987 55.6722 119.37 56.4107 119.37Z" fill="#9792E3"/>
<path d="M143.47 114.064L149.459 117.521C149.795 117.715 150.163 117.807 150.525 117.807C151.263 117.807 151.981 117.424 152.377 116.738C152.967 115.716 152.616 114.41 151.595 113.82L145.606 110.363C144.579 109.772 143.278 110.123 142.688 111.145C142.098 112.167 142.449 113.473 143.47 114.064Z" fill="#9792E3"/>
<path d="M159.491 88.3793C159.491 87.1995 158.535 86.243 157.355 86.243H150.441C149.261 86.243 148.305 87.1995 148.305 88.3793C148.305 89.559 149.261 90.5156 150.441 90.5156H157.355C158.535 90.5156 159.491 89.559 159.491 88.3793Z" fill="#9792E3"/>
<path d="M143.638 66.9245C144 66.9245 144.368 66.8327 144.704 66.6387L150.691 63.1818C151.714 62.5914 152.063 61.2854 151.474 60.2632C150.882 59.2409 149.574 58.8894 148.555 59.4808L142.568 62.9377C141.545 63.5281 141.196 64.8341 141.785 65.8564C142.182 66.5417 142.899 66.9245 143.638 66.9245Z" fill="#9792E3"/>
<path d="M125.945 49.8957C126.683 49.8957 127.401 49.5129 127.797 48.8276L131.254 42.8401C131.843 41.8178 131.494 40.5119 130.472 39.9215C129.445 39.329 128.143 39.6826 127.553 40.7038L124.096 46.6913C123.507 47.7135 123.856 49.0195 124.879 49.6099C125.216 49.8039 125.583 49.8957 125.945 49.8957Z" fill="#9792E3"/>
</svg>
