<svg width="196" height="196" viewBox="0 0 196 196" fill="none" xmlns="http://www.w3.org/2000/svg">
<path d="M75.0276 136.147C71.873 134.568 68.9956 132.483 66.5087 129.973C64.6657 128.131 63.0543 126.069 61.7105 123.833C61.143 122.844 59.8853 122.505 58.9012 123.075C57.9171 123.645 57.5795 124.91 58.147 125.899C58.1592 125.921 58.1721 125.942 58.1852 125.963C59.7013 128.489 61.5192 130.817 63.5985 132.896C66.4008 135.725 69.6437 138.075 73.1993 139.853C74.2171 140.36 75.4514 139.943 75.9563 138.919C76.4611 137.895 76.0452 136.655 75.0276 136.147Z" fill="#9792E3"/>
<path d="M89.7745 125.188C85.231 125.188 81.5476 121.485 81.5476 116.917H77.4342C77.4453 122.964 81.7877 128.125 87.7178 129.138V133.459H91.8312V129.138C98.5443 127.956 103.034 121.527 101.858 114.777C100.829 108.867 95.7418 104.545 89.7745 104.51C85.231 104.51 81.5476 100.807 81.5476 96.2389C81.5476 91.671 85.231 87.9677 89.7745 87.9677C94.318 87.9677 98.0013 91.671 98.0013 96.2389H102.115C102.104 90.1914 97.7611 85.0312 91.8312 84.0182V79.6965H87.7178V84.0182C81.0047 85.2 76.5151 91.6293 77.6905 98.3789C78.7196 104.288 83.8072 108.611 89.7745 108.646C94.318 108.646 98.0013 112.349 98.0013 116.917C98.0013 121.485 94.318 125.188 89.7745 125.188Z" fill="#9792E3"/>
<path d="M128.095 61.6074C127.216 60.88 125.916 61.0067 125.193 61.8907C124.469 62.7748 124.596 64.0812 125.474 64.8086C127.641 66.6048 129.63 68.6069 131.414 70.7871C132.135 71.6706 133.431 71.7996 134.31 71.0755C135.188 70.3515 135.317 69.0483 134.596 68.1648C132.644 65.7741 130.466 63.5779 128.095 61.6074Z" fill="#9792E3"/>
<path d="M63.6349 80.2224C62.0919 81.7716 60.6882 83.4548 59.4403 85.2522C53.0331 94.4366 51.1101 106.045 54.2101 116.821C54.5214 117.92 55.6595 118.558 56.7522 118.243C57.8448 117.931 58.4785 116.787 58.1671 115.688C53.1642 98.1289 63.2666 79.817 80.7317 74.7868C92.2199 71.478 104.589 74.6937 113.042 83.1864C113.824 83.9709 114.558 84.782 115.245 85.6202C125.635 98.2791 125.167 116.698 114.147 128.806C114.114 128.836 114.085 128.869 114.052 128.9L114.015 128.936C113.991 128.961 113.964 128.985 113.941 129.009C113.661 129.327 113.365 129.648 113.04 129.97C105.278 137.767 94.1619 141.16 83.3989 139.019C82.2847 138.798 81.2021 139.525 80.9813 140.645C80.7604 141.766 81.4846 142.854 82.5989 143.076C94.7106 145.489 107.221 141.671 115.957 132.899C116.28 132.576 116.574 132.254 116.874 131.929C116.927 131.882 116.977 131.832 117.024 131.78C130.542 117.125 130.067 94.3342 115.953 80.2605C101.516 65.7251 78.0927 65.7081 63.6349 80.2224Z" fill="#9792E3"/>
<path d="M106.239 42.4667C91.6391 42.4635 77.8556 49.2384 68.8911 60.8243C65.8258 63.2149 63.0721 65.9842 60.6951 69.0665C40.0904 85.2147 36.4079 115.099 52.4698 135.815C68.5316 156.53 98.2561 160.232 118.861 144.084C121.931 141.677 124.694 138.899 127.088 135.813C130.161 133.4 132.923 130.615 135.314 127.52C146.842 118.543 153.572 104.695 153.533 90.0357C153.539 63.7696 132.365 42.4723 106.239 42.4667ZM127.16 128.363C119.404 141.74 105.175 149.975 89.7752 150.001C65.9214 150.007 46.5794 130.571 46.5729 106.589C46.5694 93.1098 52.7925 80.3933 63.4164 72.1702C64.9091 71.0125 66.474 69.9522 68.1016 68.9962C88.764 56.9791 115.204 64.0774 127.157 84.8511C134.901 98.3103 134.902 114.904 127.16 128.363ZM138.962 74.5026C138.435 73.4908 137.192 73.0997 136.186 73.629C135.18 74.1583 134.79 75.4078 135.317 76.4198C135.343 76.4711 135.372 76.5215 135.403 76.5707C143.308 90.3209 143.105 107.314 134.876 120.871C142.751 95.8499 128.959 69.1492 104.072 61.2332C94.7884 58.2804 84.8247 58.2822 75.5425 61.2382C82.297 57.0649 90.0737 54.8645 98.0018 54.8839C105.659 54.8777 113.179 56.9212 119.79 60.8039C120.797 61.3317 122.041 60.9388 122.565 59.9261C123.056 58.9804 122.75 57.8147 121.86 57.2349C110.304 50.4547 96.4333 48.9086 83.6809 52.9795C104.044 40.4697 130.639 46.9253 143.081 67.3983C147.224 74.2147 149.417 82.0474 149.419 90.0357C149.436 98.006 147.25 105.824 143.108 112.62C147.109 99.8923 145.604 86.0599 138.962 74.5026Z" fill="#9792E3"/>
<path d="M26.6082 34.7894L160.03 168.211" stroke="#9792E3" stroke-width="10"/>
<path d="M98 190.096C148.863 190.096 190.096 148.863 190.096 98C190.096 47.1366 148.863 5.90363 98 5.90363C47.1366 5.90363 5.90361 47.1366 5.90361 98C5.90361 148.863 47.1366 190.096 98 190.096Z" stroke="#9792E3" stroke-width="10"/>
</svg>
