<svg width="37" height="37" viewBox="0 0 37 37" fill="none" xmlns="http://www.w3.org/2000/svg">
<path d="M27.1719 2.16797C25.1641 2.16797 23.3234 2.8042 21.7009 4.05902C20.1453 5.26202 19.1097 6.79427 18.5 7.90846C17.8903 6.7942 16.8547 5.26202 15.2991 4.05902C13.6766 2.8042 11.8359 2.16797 9.82812 2.16797C4.22523 2.16797 0 6.75084 0 12.8282C0 19.3938 5.27127 23.8859 13.2513 30.6863C14.6064 31.8412 16.1424 33.1502 17.7389 34.5463C17.9493 34.7306 18.2196 34.832 18.5 34.832C18.7804 34.832 19.0507 34.7306 19.2611 34.5464C20.8577 33.15 22.3937 31.8411 23.7496 30.6856C31.7287 23.8859 37 19.3938 37 12.8282C37 6.75084 32.7748 2.16797 27.1719 2.16797Z" fill="white"/>
</svg>
