<svg width="722" height="512" viewBox="0 0 722 512" fill="none" xmlns="http://www.w3.org/2000/svg">
<g clip-path="url(#clip0)">
<path opacity="0.1" d="M240.035 511.712C275.196 511.712 303.699 507.129 303.699 501.475C303.699 495.822 275.196 491.238 240.035 491.238C204.874 491.238 176.371 495.822 176.371 501.475C176.371 507.129 204.874 511.712 240.035 511.712Z" fill="#6C63FF"/>
<path opacity="0.1" d="M586.106 512C629.981 512 665.549 507.417 665.549 501.763C665.549 496.11 629.981 491.526 586.106 491.526C542.23 491.526 506.662 496.11 506.662 501.763C506.662 507.417 542.23 512 586.106 512Z" fill="#6C63FF"/>
<path opacity="0.1" d="M9.04264 221.221H75.3532V311.704H13.8972C13.7338 312.633 13.577 313.568 13.4071 314.504H75.3532V387.477C75.2421 387.444 75.1441 387.405 75.0395 387.365C73.2885 386.672 71.5505 385.939 69.8126 385.155L68.7019 384.651C66.9595 383.827 65.2172 382.955 63.4749 382.034C62.8673 381.714 62.2596 381.38 61.6585 381.04C51.9859 375.616 43.1989 368.742 35.6021 360.658C35.38 360.442 35.1709 360.213 34.9488 360.004C33.8903 358.853 32.8514 357.688 31.8452 356.498L30.7345 355.19C29.5454 353.731 28.3955 352.233 27.2782 350.715C27.1148 350.493 26.958 350.271 26.7882 350.061C22.2443 343.754 18.4714 336.924 15.5502 329.718C15.4587 329.503 15.3803 329.267 15.2954 329.064C14.3981 326.753 13.6032 324.42 12.9106 322.065C12.61 321.078 12.3226 320.103 12.0743 319.076C11.9828 318.775 11.9044 318.481 11.8325 318.186C8.12138 303.685 7.68362 288.621 7.68362 273.661C7.68362 271.915 7.68362 270.162 7.68362 268.428C7.68362 262.378 7.7555 256.288 7.86003 250.205C7.86003 248.628 7.92537 247.058 7.95804 245.475C8.04951 241.459 8.18019 237.443 8.35006 233.427C8.38926 232.308 8.44153 231.196 8.50034 230.084C8.50034 229.443 8.53301 228.802 8.59834 228.161C8.75515 225.832 8.88583 223.523 9.04264 221.221Z" fill="#6C63FF"/>
<path opacity="0.1" d="M75.3532 120.474H38.98C44.8927 111.209 51.353 102.306 58.3263 93.8128C63.7297 87.167 69.4336 80.6913 75.3532 74.4511V120.474Z" fill="#6C63FF"/>
<path opacity="0.1" d="M75.3532 123.274V218.421H9.25172C9.25172 218.147 9.29746 217.865 9.31706 217.591C9.37586 216.838 9.43467 216.086 9.5 215.34C9.57187 214.464 9.65028 213.581 9.73522 212.724C9.82015 211.867 9.91163 210.82 10.0096 209.872C10.1076 208.924 10.1991 207.962 10.3102 207.014C10.4213 206.065 10.5193 205.117 10.6369 204.175C10.7545 203.233 10.859 202.278 10.9832 201.336C11.0812 200.551 11.1857 199.772 11.2902 198.988C11.4405 197.882 11.5973 196.77 11.7672 195.671C11.7672 195.508 11.8129 195.338 11.8391 195.181C13.0316 187.136 14.6565 179.162 16.7067 171.292C18.8527 163.037 21.5932 154.949 24.9065 147.09C28.4279 138.869 32.551 130.92 37.2421 123.307L75.3532 123.274Z" fill="#6C63FF"/>
<path opacity="0.1" d="M91.1843 221.214V311.704H232.815V221.214H91.1843ZM91.1843 314.497V392.206C91.9945 392.376 92.7982 392.54 93.5953 392.677C94.6799 392.886 95.7579 393.076 96.8621 393.239C97.0712 393.272 97.2868 393.305 97.5155 393.324C97.9467 393.396 98.391 393.455 98.8222 393.514C99.9134 393.665 100.998 393.789 102.089 393.887C102.605 393.939 103.128 393.985 103.651 394.024L104.912 394.122C105.598 394.175 106.277 394.214 106.95 394.234C107.368 394.234 107.786 394.273 108.218 394.286C108.544 394.286 108.871 394.286 109.211 394.286C109.551 394.286 110.034 394.286 110.446 394.286C111.008 394.286 111.569 394.286 112.125 394.286H112.876C113.438 394.286 114 394.286 114.555 394.234H114.595C114.98 394.234 115.372 394.234 115.764 394.181C115.873 394.188 115.982 394.188 116.091 394.181C116.417 394.181 116.744 394.181 117.058 394.136H117.286L119.475 393.965C120.194 393.9 120.919 393.815 121.651 393.737L123.141 393.56C129.201 392.71 135.194 391.433 141.076 389.74C154.287 386.051 167.21 380.89 180.415 377.109C197.488 372.236 216.35 369.842 232.848 375.801V314.497H91.1843ZM232.815 120.474V0.00654686C217.309 -0.161641 201.845 1.65405 186.798 5.40952C150.935 14.4297 118.757 33.9942 91.1843 58.9813V120.468H98.293V123.261H91.1843V218.421H232.815V123.268H127.479V120.474H232.815ZM414.733 79.7821C405.86 79.4681 397.04 76.6555 389.062 72.3121C373.806 64.0049 361.621 51.1778 348.004 40.3522C319.714 17.8049 284.628 4.19941 248.633 0.824188V120.474H450.819L451.322 119.945L414.733 79.7821ZM433.152 76.5116L452.681 97.9664V70.8862C446.141 71.6973 440.411 73.6269 433.178 76.4854L433.152 76.5116ZM452.681 411.502V314.497H411.068C410.957 314.085 410.846 313.667 410.715 313.248C410.839 313.667 410.944 314.085 411.061 314.497H248.66V384.651C250.202 385.796 251.724 386.999 253.233 388.222C254.86 389.531 256.467 390.911 258.081 392.265L259.708 393.612C260.486 394.266 261.27 394.92 262.06 395.535C263.628 396.809 265.212 398.065 266.81 399.303C267.601 399.957 268.411 400.546 269.215 401.161C281.973 410.926 295.432 419.739 309.482 427.528C312.631 429.272 315.809 430.975 319.014 432.637C321.151 433.729 323.301 434.815 325.457 435.868C328.697 437.451 331.964 438.977 335.257 440.447C365.617 454.09 397.72 463.453 430.649 468.266C437.963 469.348 445.304 470.198 452.674 470.817V411.496H453.328L452.681 411.502ZM248.66 123.268V218.421H452.707V123.268H248.66ZM248.66 221.214V311.704H452.707V221.214H248.66ZM468.545 70.7685V100.975L493.471 73.5942C485.212 72.2598 476.903 71.307 468.545 70.7357V70.7685ZM468.545 221.247V311.704H667.006V221.214L468.545 221.247ZM666.281 418.684L666.98 314.497H468.545V471.857C481.328 472.395 494.131 472.242 506.897 471.399H507.12C513.218 471.016 519.288 470.457 525.329 469.725H525.466C557.697 465.969 589.213 457.55 619.029 444.731L666.281 418.684ZM705.274 236.115C704.529 234.355 703.751 232.609 702.961 230.882C701.484 227.612 699.923 224.433 698.315 221.254H682.83V311.704H721.98C721.961 286.089 715.486 259.925 705.293 236.082L705.274 236.115ZM682.83 314.53V404.143C693.859 393.56 703.176 381.452 709.886 367.611C717.956 350.944 721.647 332.898 721.948 314.517L682.83 314.53ZM682.83 194.88V218.428H696.865C692.619 210.322 687.941 202.45 682.85 194.847L682.83 194.88ZM548.236 88.5211C547.204 88.1286 546.172 87.7296 545.133 87.3437C534.176 83.2929 522.98 79.9244 511.608 77.2572L473.465 119.166L472.733 119.945L473.223 120.481H608.98C590.073 107.451 569.689 96.7122 548.256 88.4884L548.236 88.5211ZM612.959 123.3H471.328L468.545 125.851V218.421H492.942H492.981H667.032V173.582C651.287 154.518 633.115 137.603 612.979 123.268L612.959 123.3Z" fill="#6C63FF"/>
<path opacity="0.1" d="M75.3532 171.266V218.421H9.25172C9.25172 218.147 9.29746 217.865 9.31706 217.591C9.37586 216.838 9.43467 216.086 9.5 215.34C9.57187 214.464 9.65028 213.581 9.73522 212.724C9.82015 211.867 9.91163 210.82 10.0096 209.872C10.1076 208.924 10.1991 207.962 10.3102 207.014C10.4213 206.065 10.5193 205.117 10.6369 204.175C10.7545 203.233 10.859 202.278 10.9832 201.336C11.0812 200.551 11.1857 199.772 11.2902 198.988C11.4405 197.882 11.5973 196.77 11.7672 195.671C11.7672 195.508 11.8129 195.338 11.8391 195.181C13.0316 187.136 14.6565 179.162 16.7067 171.292L75.3532 171.266Z" fill="#6C63FF"/>
<path opacity="0.1" d="M9.04264 221.221H75.3532V311.704H13.8972C13.7338 312.633 13.577 313.568 13.4071 314.504H75.3532V387.477C75.2421 387.444 75.1441 387.405 75.0395 387.365C73.2885 386.672 71.5505 385.939 69.8126 385.155L68.7019 384.651C66.9595 383.827 65.2172 382.955 63.4749 382.034C62.8673 381.714 62.2596 381.38 61.6585 381.04C51.9859 375.616 43.1989 368.742 35.6021 360.658C35.38 360.442 35.1709 360.213 34.9488 360.004C33.8903 358.853 32.8514 357.688 31.8452 356.498L30.7345 355.19C29.5454 353.731 28.3955 352.233 27.2782 350.715C27.1148 350.493 26.958 350.271 26.7882 350.061C22.2443 343.754 18.4714 336.924 15.5502 329.718C15.4587 329.503 15.3803 329.267 15.2954 329.064C14.3981 326.753 13.6032 324.42 12.9106 322.065C12.61 321.078 12.3226 320.103 12.0743 319.076C11.9828 318.775 11.9044 318.481 11.8325 318.186C8.12138 303.685 7.68362 288.621 7.68362 273.661C7.68362 271.915 7.68362 270.162 7.68362 268.428C7.68362 262.378 7.7555 256.288 7.86003 250.205C7.86003 248.628 7.92537 247.058 7.95804 245.475C8.04951 241.459 8.18019 237.443 8.35006 233.427C8.38926 232.308 8.44153 231.196 8.50034 230.084C8.50034 229.443 8.53301 228.802 8.59834 228.161C8.75515 225.832 8.88583 223.523 9.04264 221.221Z" fill="#6C63FF"/>
<path opacity="0.1" d="M141.043 136.893V218.421H91.1843V136.893H98.293V109.289H127.472V136.893H141.043Z" fill="#6C63FF"/>
<path opacity="0.1" d="M141.043 221.214H91.1909V311.698H141.043V221.214Z" fill="#6C63FF"/>
<path opacity="0.1" d="M91.1843 314.504H141.043V389.727C135.162 391.419 129.168 392.693 123.108 393.54L121.618 393.723C120.887 393.808 120.161 393.88 119.443 393.952C118.724 394.024 117.979 394.077 117.254 394.122H117.025C116.711 394.122 116.372 394.162 116.065 394.168H115.731C115.339 394.168 114.947 394.207 114.555 394.221C114 394.253 113.445 394.26 112.876 394.266C112.634 394.266 112.406 394.266 112.164 394.266C111.602 394.266 111.047 394.266 110.485 394.266H109.25C108.917 394.266 108.597 394.266 108.25 394.266L106.989 394.221C106.336 394.221 105.63 394.149 104.951 394.103L103.696 394.011L102.135 393.867C101.037 393.769 99.946 393.645 98.868 393.494L97.5612 393.311L96.9078 393.22C95.8167 393.05 94.7387 392.866 93.641 392.657C92.8373 392.52 92.0402 392.35 91.2301 392.186L91.1843 314.504Z" fill="#6C63FF"/>
<path opacity="0.1" d="M452.707 127.264H411.597V218.415H452.707V127.264Z" fill="#6C63FF"/>
<path opacity="0.1" d="M452.714 221.214V311.704H248.66V272.673H357.348V295.698H411.597V221.214H452.714Z" fill="#6C63FF"/>
<path opacity="0.1" d="M453.36 411.522H452.707V470.883C445.346 470.259 438.006 469.411 430.688 468.338C397.743 463.509 365.626 454.127 335.257 440.46C326.489 436.509 317.899 432.196 309.488 427.521C295.438 419.729 281.978 410.916 269.215 401.154C266.009 398.695 262.844 396.178 259.721 393.606C257.558 391.82 255.409 389.988 253.233 388.209C251.724 386.986 250.201 385.782 248.66 384.631V314.504H411.055C410.944 314.085 410.832 313.667 410.715 313.254C410.839 313.667 410.957 314.085 411.068 314.504H452.707V411.483C452.929 411.489 453.145 411.509 453.36 411.522Z" fill="#6C63FF"/>
<path opacity="0.1" d="M559.925 120.474H533.137V112.141H545.146V87.3175C546.187 87.6969 547.223 88.0871 548.256 88.4883V112.141H559.925V120.474Z" fill="#6C63FF"/>
<path opacity="0.1" d="M624.465 218.421H492.955C492.955 218.421 492.955 218.421 493 218.454L492.942 218.421H468.545V127.271H475.457V194.644H507.048V154.743H533.143V123.274H559.932V154.77H586.027V194.67H624.465V218.421Z" fill="#6C63FF"/>
<path opacity="0.1" d="M468.545 221.214V311.704H624.465V221.214H468.545ZM666.79 418.22L667.006 346.595H624.465V314.543H468.545V471.857C481.328 472.395 494.131 472.242 506.898 471.399H507.12C513.218 471.015 519.288 470.457 525.329 469.725H525.466C557.697 465.969 589.213 457.55 619.029 444.731" fill="#6C63FF"/>
<path opacity="0.1" d="M685.601 314.504H721.974C721.654 332.878 717.969 350.925 709.906 367.592C703.196 381.439 693.872 393.547 682.857 404.124V346.562H685.601V314.504Z" fill="#6C63FF"/>
<path opacity="0.1" d="M721.994 311.704H685.601V236.082H705.293C715.486 259.925 721.961 286.089 721.994 311.704Z" fill="#6C63FF"/>
<path opacity="0.1" d="M452.714 152.604H430.688V181.183H452.714V152.604Z" fill="#6C63FF"/>
<path opacity="0.1" d="M452.714 211.841H430.688V218.421H452.714V211.841Z" fill="#6C63FF"/>
<path opacity="0.1" d="M452.714 221.214H430.688V240.413H452.714V221.214Z" fill="#6C63FF"/>
<path opacity="0.1" d="M452.714 271.077H430.688V299.655H452.714V271.077Z" fill="#6C63FF"/>
<path opacity="0.1" d="M452.714 330.314H430.688V358.892H452.714V330.314Z" fill="#6C63FF"/>
<path opacity="0.1" d="M452.707 411.483C452.929 411.483 453.145 411.483 453.36 411.522H452.707V418.161H430.688V389.55H452.707V411.483Z" fill="#6C63FF"/>
<path opacity="0.1" d="M452.707 448.773V470.85C445.346 470.226 438.006 469.378 430.688 468.305V448.773H452.707Z" fill="#6C63FF"/>
<path opacity="0.1" d="M343.052 309.605H248.66V311.704H343.052V309.605Z" fill="#6C63FF"/>
<path opacity="0.1" d="M343.052 314.497H248.66V322.543H343.052V314.497Z" fill="#6C63FF"/>
<path opacity="0.1" d="M343.052 348.917H248.66V361.855H343.052V348.917Z" fill="#6C63FF"/>
<path opacity="0.1" d="M343.045 388.229V401.167H269.215C266.009 398.716 262.842 396.2 259.715 393.619C257.552 391.833 255.409 390.001 253.227 388.229H343.045Z" fill="#6C63FF"/>
<path opacity="0.1" d="M343.045 427.534V440.46H335.251C326.491 436.505 317.904 432.19 309.488 427.515L343.045 427.534Z" fill="#6C63FF"/>
<path opacity="0.1" d="M525.486 229.986H506.904V248.589H525.486V229.986Z" fill="#6C63FF"/>
<path opacity="0.1" d="M123.154 143.309H104.572V161.912H123.154V143.309Z" fill="#6C63FF"/>
<path opacity="0.1" d="M123.154 186.52H104.572V205.123H123.154V186.52Z" fill="#6C63FF"/>
<path opacity="0.1" d="M123.154 229.731H104.572V248.334H123.154V229.731Z" fill="#6C63FF"/>
<path opacity="0.1" d="M123.154 272.935H104.572V291.538H123.154V272.935Z" fill="#6C63FF"/>
<path opacity="0.1" d="M123.154 316.146H104.572V334.749H123.154V316.146Z" fill="#6C63FF"/>
<path opacity="0.1" d="M123.154 359.356H104.572V377.959H123.154V359.356Z" fill="#6C63FF"/>
<path opacity="0.1" d="M596.422 229.986H577.841V248.589H596.422V229.986Z" fill="#6C63FF"/>
<path opacity="0.1" d="M525.486 275.872H506.904V294.475H525.486V275.872Z" fill="#6C63FF"/>
<path opacity="0.1" d="M596.422 275.872H577.841V294.475H596.422V275.872Z" fill="#6C63FF"/>
<path opacity="0.1" d="M525.486 321.751H506.904V340.354H525.486V321.751Z" fill="#6C63FF"/>
<path opacity="0.1" d="M596.422 321.751H577.841V340.354H596.422V321.751Z" fill="#6C63FF"/>
<path opacity="0.1" d="M525.486 367.637H506.904V386.24H525.486V367.637Z" fill="#6C63FF"/>
<path opacity="0.1" d="M596.422 367.637H577.841V386.24H596.422V367.637Z" fill="#6C63FF"/>
<path opacity="0.1" d="M525.486 413.523H506.904V432.126H525.486V413.523Z" fill="#6C63FF"/>
<path opacity="0.1" d="M596.422 413.523H577.841V432.126H596.422V413.523Z" fill="#6C63FF"/>
<path opacity="0.1" d="M506.904 471.399V459.403H525.479V469.692L506.904 471.399Z" fill="#6C63FF"/>
<path opacity="0.1" d="M11.7607 195.168V205.81H75.3532V195.168H11.7607ZM18.0984 205.143H12.9106V195.822H18.1376L18.0984 205.143ZM24.4295 205.143H19.2026V195.822H24.4295V205.143ZM30.7476 205.143H25.5206V195.822H30.7476V205.143ZM37.0788 205.143H31.8583V195.822H37.0853L37.0788 205.143ZM43.4034 205.143H38.1764V195.822H43.4034V205.143ZM49.7345 205.143H44.5076V195.822H49.7345V205.143ZM56.0657 205.143H50.8387V195.822H56.0657V205.143ZM62.3903 205.143H57.1634V195.822H62.3903V205.143ZM68.7149 205.143H63.488V195.822H68.7149V205.143ZM75.0396 205.143H69.8126V195.822H75.0396V205.143Z" fill="#6C63FF"/>
<path opacity="0.1" d="M11.7607 226.133V236.776H75.3532V226.133H11.7607ZM18.0984 236.102H12.9106V226.807H18.1376L18.0984 236.102ZM24.4295 236.102H19.2026V226.807H24.4295V236.102ZM30.7476 236.102H25.5206V226.807H30.7476V236.102ZM37.0788 236.102H31.8583V226.807H37.0853L37.0788 236.102ZM43.4034 236.102H38.1764V226.807H43.4034V236.102ZM49.7345 236.102H44.5076V226.807H49.7345V236.102ZM56.0657 236.102H50.8387V226.807H56.0657V236.102ZM62.3903 236.102H57.1634V226.807H62.3903V236.102ZM68.7149 236.102H63.488V226.807H68.7149V236.102ZM75.0396 236.102H69.8126V226.807H75.0396V236.102Z" fill="#6C63FF"/>
<path opacity="0.1" d="M11.7607 257.112V267.774H75.3532V257.112H11.7607ZM18.0984 267.081H12.9106V257.779H18.1376L18.0984 267.081ZM24.4295 267.081H19.2026V257.779H24.4295V267.081ZM30.7476 267.081H25.5206V257.779H30.7476V267.081ZM37.0788 267.081H31.8583V257.779H37.0853L37.0788 267.081ZM43.4034 267.081H38.1764V257.779H43.4034V267.081ZM49.7345 267.081H44.5076V257.779H49.7345V267.081ZM56.0657 267.081H50.8387V257.779H56.0657V267.081ZM62.3903 267.081H57.1634V257.779H62.3903V267.081ZM68.7149 267.081H63.488V257.779H68.7149V267.081ZM75.0396 267.081H69.8126V257.779H75.0396V267.081Z" fill="#6C63FF"/>
<path opacity="0.1" d="M11.7607 288.091V298.72H75.3532V288.091H11.7607ZM18.0984 298.059H12.9106V288.751H18.1376L18.0984 298.059ZM24.4295 298.059H19.2026V288.751H24.4295V298.059ZM30.7476 298.059H25.5206V288.751H30.7476V298.059ZM37.0788 298.059H31.8583V288.751H37.0853L37.0788 298.059ZM43.4034 298.059H38.1764V288.751H43.4034V298.059ZM49.7345 298.059H44.5076V288.751H49.7345V298.059ZM56.0657 298.059H50.8387V288.751H56.0657V298.059ZM62.3903 298.059H57.1634V288.751H62.3903V298.059ZM68.7149 298.059H63.488V288.751H68.7149V298.059ZM75.0396 298.059H69.8126V288.751H75.0396V298.059Z" fill="#6C63FF"/>
<path opacity="0.1" d="M12.0351 319.063C12.2899 320.064 12.5774 321.065 12.8779 322.052V319.73H18.1049V329.032H15.3085C15.3934 329.248 15.4783 329.483 15.5633 329.686H75.3532V319.063H12.0351ZM24.4491 329.032H19.2222V319.73H24.4491V329.032ZM30.7672 329.032H25.5402V319.73H30.7672V329.032ZM37.0983 329.032H31.8583V319.73H37.0853L37.0983 329.032ZM43.423 329.032H38.196V319.73H43.423V329.032ZM49.7541 329.032H44.5272V319.73H49.7541V329.032ZM56.0853 329.032H50.8583V319.73H56.0853V329.032ZM62.4099 329.032H57.1829V319.73H62.4099V329.032ZM68.7345 329.032H63.5076V319.73H68.7345V329.032ZM75.0591 329.032H69.8322V319.73H75.0591V329.032Z" fill="#6C63FF"/>
<path opacity="0.1" d="M26.8012 350.042C26.9646 350.251 27.1214 350.487 27.2913 350.696H30.7476V355.163C31.12 355.608 31.4859 356.053 31.8649 356.472V350.67H37.0918V360.004H34.9749C35.184 360.22 35.3865 360.449 35.6283 360.658H75.3728V350.042H26.8012ZM43.4034 360.004H38.1764V350.709H43.4034V360.004ZM49.7345 360.004H44.5076V350.709H49.7345V360.004ZM56.0657 360.004H50.8387V350.709H56.0657V360.004ZM62.3903 360.004H57.1633V350.709H62.3903V360.004ZM68.7149 360.004H63.488V350.709H68.7149V360.004ZM75.0395 360.004H69.8126V350.709H75.0395V360.004Z" fill="#6C63FF"/>
<path opacity="0.1" d="M61.6847 381.014C62.2792 381.354 62.8869 381.668 63.501 382.008V381.681H68.728V384.625L69.8387 385.141V381.681H75.0657V387.339C75.1659 387.389 75.271 387.429 75.3793 387.457V381.014H61.6847Z" fill="#6C63FF"/>
<path opacity="0.1" d="M492.955 218.421H492.994H492.955ZM452.707 411.476H453.36H452.707ZM410.715 313.248C410.839 313.667 410.944 314.085 411.061 314.497C410.957 314.085 410.846 313.667 410.715 313.248ZM492.955 218.402H492.994H492.955ZM98.3191 120.455V123.248H127.505V120.455H98.3191ZM452.707 411.476H453.36H452.707ZM410.715 313.248C410.839 313.667 410.944 314.085 411.061 314.497C410.957 314.085 410.846 313.667 410.715 313.248ZM492.955 218.402H492.994H492.955ZM452.707 411.456H453.36H452.707ZM410.715 313.248C410.839 313.667 410.944 314.085 411.061 314.497C410.957 314.085 410.846 313.667 410.715 313.248Z" fill="#6C63FF"/>
<path d="M301.596 248.347C301.596 248.347 299.021 247.987 299.021 244.232C299.021 240.478 297.179 233.466 297.179 233.466C297.179 233.433 295.585 221.254 293.383 219.317C291.181 217.381 288.352 206.013 288.352 206.013C288.352 206.013 287.868 199.844 286.882 198.517C285.895 197.189 284.562 193.938 282.596 189.3C280.629 184.662 272.429 181.451 272.429 181.451C272.429 181.451 257.604 172.843 253.403 170.037C253.021 169.806 252.664 169.536 252.338 169.232C251.606 168.27 248.418 168.251 248.418 168.251C248.085 166.145 247.764 163.724 247.66 161.533C247.66 161.298 247.66 161.062 247.627 160.827C252.312 158.054 255.84 153.683 257.565 148.516C257.643 148.268 257.709 148.006 257.781 147.757C258.061 147.665 258.32 147.515 258.539 147.316C258.758 147.118 258.934 146.876 259.055 146.606C259.434 145.762 259.44 144.775 259.911 143.99C260.459 143.061 261.505 142.564 262.328 141.864C264.406 140.098 264.942 137.122 264.844 134.414C264.778 132.222 264.425 130.011 264.563 127.833L264.602 127.284C264.641 126.957 264.687 126.63 264.746 126.316C265.066 124.693 265.765 123.163 266.157 121.554C266.549 119.945 266.588 118.133 265.673 116.746C264.334 114.712 261.544 114.306 259.094 114.097C256.317 113.861 253.834 114.169 252.057 111.86C251.225 110.653 250.29 109.521 249.261 108.478C248.895 108.138 245.34 105.966 245.34 105.822C241.871 104.214 237.939 103.912 234.266 104.972C232.423 105.508 230.685 106.385 228.817 106.823C224.785 107.778 220.146 106.745 216.723 109.054C214.815 110.362 213.672 112.442 212.6 114.47C211.729 116.14 210.845 117.808 209.947 119.474C208.503 122.214 207.033 125.001 206.426 128.036C206.298 128.696 206.219 129.365 206.191 130.038V130.07C206.191 130.312 206.191 130.554 206.191 130.796V131.104C206.191 131.333 206.191 131.555 206.23 131.758C206.269 131.961 206.262 132.026 206.282 132.163C206.302 132.301 206.334 132.608 206.373 132.818C206.413 133.027 206.491 133.393 206.569 133.681C206.602 133.805 206.648 133.923 206.687 134.041C206.752 134.263 206.831 134.479 206.916 134.695C206.961 134.806 207.007 134.924 207.059 135.035C207.157 135.264 207.275 135.486 207.393 135.689C207.445 135.781 207.484 135.866 207.536 135.951C207.719 136.255 207.919 136.548 208.138 136.827C209.536 138.574 211.594 139.686 213.116 141.321C213.116 141.386 213.116 141.452 213.116 141.511C213.116 141.694 213.116 141.87 213.116 142.054C213.197 145.701 214.167 149.273 215.941 152.459C217.715 155.645 220.24 158.349 223.296 160.336C223.296 160.585 223.328 160.84 223.341 161.088C223.469 163.03 223.445 164.979 223.27 166.916C223.004 166.603 222.67 166.353 222.295 166.185C221.92 166.018 221.511 165.937 221.1 165.948C220.82 165.935 220.538 165.959 220.264 166.02L220.205 165.974V166.033C218.768 166.387 216.997 167.884 215.305 172.143C215.305 172.143 210.156 177.951 206.236 177.709C202.316 177.467 192.391 183.753 192.391 183.753C192.391 183.753 182.708 190.046 180.631 196.456C179.469 200.091 178.077 203.648 176.462 207.105L164.492 231.798L162.284 251.388C162.284 251.388 163.506 260.101 163.264 261.429C163.022 262.757 168.288 274.734 168.288 274.734C168.288 274.734 185.688 305.34 192.796 306.91L193.306 306.55C193.61 306.709 193.933 306.83 194.267 306.91L195.73 305.876C195.818 307.028 195.781 308.186 195.619 309.33C194.639 312.352 195.985 332.073 197.697 335.939C199.409 339.805 198.801 390.492 198.801 390.492L198.559 394.966C198.559 394.966 198.559 395.11 198.618 395.359L198.559 396.418L198.736 396.51C198.919 397.929 198.859 399.369 198.559 400.768C197.945 402.73 197.697 408.277 197.697 408.277C197.697 408.277 192.803 439.596 195.122 445.889C197.442 452.181 199.415 459.076 199.415 459.076C199.415 459.076 201.865 466.925 199.533 468.266C197.2 469.607 190.568 471.857 191.934 475.128C193.175 478.15 197.886 486.248 198.585 487.431L198.526 488.053L197.566 498.473C197.722 499.849 198.094 501.191 198.67 502.45C199.722 504.72 201.767 507.074 205.655 506.819C206.308 506.774 207.066 506.695 207.798 506.597C214.913 505.642 223.675 502.463 223.675 502.463C223.22 502.174 222.803 501.829 222.433 501.436C222.084 501.097 221.806 500.69 221.619 500.24C221.431 499.79 221.337 499.307 221.342 498.82C221.447 496.923 217.899 487.883 217.017 485.659C216.88 485.338 216.808 485.155 216.808 485.155C216.808 485.155 224.896 476.691 223.551 469.188C223.551 469.188 214.599 463.955 217.546 461.084C220.493 458.212 225.759 449.964 225.759 449.964C225.759 449.964 226.001 419.123 225.759 414.518C225.507 411.321 225.658 408.106 226.21 404.948C226.308 404.47 226.425 404.006 226.55 403.548C230.625 404.157 234.739 404.47 238.859 404.483C240.362 404.483 241.891 404.483 243.433 404.392C243.433 404.828 243.452 405.299 243.491 405.805C243.831 413.445 244.465 426.841 244.981 431.819C245.713 438.955 249.757 458.186 249.757 458.186C249.757 458.186 242.041 463.144 251.103 475.363C251.103 475.363 251.103 479.791 250.502 480.432C249.86 482.528 249.343 484.66 248.954 486.817C248.575 489.119 248.418 491.448 249.032 492.658C250.502 495.549 259.323 495.314 259.323 495.314L259.538 495.274C261.203 495.102 262.886 495.262 264.489 495.746C266.092 496.23 267.583 497.028 268.875 498.093C272.227 500.788 284.948 499.604 291.834 498.748C294.533 498.407 296.336 498.093 296.336 498.093C296.423 497.788 296.454 497.468 296.427 497.152C296.356 495.457 295.029 491.742 286.039 488.426C286.039 488.426 277.584 482.735 277.702 477.777H277.525H276.545C277.258 477.738 277.715 477.777 277.715 477.777C277.715 477.777 274.402 465.676 275.755 464.695C277.107 463.713 273.056 450.304 273.056 450.304C273.056 450.304 270.737 427.803 270.613 426.226C270.618 424.873 270.823 423.529 271.22 422.236L270.613 409.9C270.613 409.9 270.495 405.798 270.613 404.464C270.593 403.306 270.499 402.15 270.332 401.004C270.273 400.546 270.214 400.068 270.149 399.597C273.318 398.793 275.376 398.047 275.376 398.047L275.01 355.105C277.702 349.872 278.198 338.392 278.185 330.248C278.185 325.015 277.95 321.143 277.95 321.143L281.629 315.132C281.629 315.132 282.478 307.936 281.132 306.36C280.537 305.647 280.805 304.908 281.295 304.3C281.55 304.098 281.818 303.914 282.099 303.75C282.099 303.75 282.06 303.691 282.014 303.606C282.271 303.391 282.544 303.197 282.831 303.024C282.831 303.024 281.524 300.996 282.694 300.139C283.791 300.885 284.771 301.448 285.516 301.906C285.464 302.383 285.412 302.658 285.412 302.658L285.725 302.004C286.444 302.409 286.882 302.658 286.882 302.658C286.882 302.658 292.644 291.165 292.52 289.471C292.396 287.777 296.441 280.64 296.441 280.64C296.441 280.64 296.931 276.892 299.139 275.322C301.347 273.753 300.851 262.378 300.851 262.378C300.851 262.378 301.465 256.451 302.935 254.031C304.405 251.611 301.596 248.347 301.596 248.347ZM191.333 243.304L191.444 246.044C190.791 244.991 190.32 244.232 190.32 244.232L191.333 243.304Z" fill="url(#paint0_linear)"/>
<path d="M287.195 297.693L285.784 303.711C285.784 303.711 274.481 297.935 272.442 290.596C270.404 283.257 275.853 280.47 275.853 280.47L286.385 284.938L287.195 297.693Z" fill="white"/>
<path opacity="0.1" d="M287.195 297.693L285.784 303.711C285.784 303.711 274.481 297.935 272.442 290.596C270.404 283.257 275.853 280.47 275.853 280.47L286.385 284.938L287.195 297.693Z" fill="black"/>
<path d="M223.76 502.502C223.76 502.502 213.306 506.348 206.119 506.832C202.303 507.088 200.297 504.746 199.265 502.489C198.701 501.235 198.337 499.899 198.187 498.532L199.121 488.164L199.618 482.643L214.887 478.673L217.05 485.293L217.252 485.796C218.121 488.007 221.603 497.001 221.499 498.879C221.495 499.359 221.587 499.836 221.772 500.28C221.956 500.724 222.227 501.126 222.57 501.462C222.921 501.858 223.321 502.208 223.76 502.502Z" fill="white"/>
<path d="M295.166 497.23C295.193 497.545 295.162 497.862 295.075 498.166C295.075 498.166 272.717 501.9 268.143 498.166C266.854 497.074 265.35 496.265 263.73 495.79C262.11 495.314 260.408 495.183 258.735 495.405C258.735 495.405 250.084 495.641 248.64 492.789C248.039 491.592 248.196 489.27 248.568 486.98C248.948 484.835 249.454 482.714 250.084 480.629L250.43 480.354L252.488 478.699L276.585 477.986H276.768C276.65 482.918 284.948 488.576 284.948 488.576C293.762 491.847 295.062 495.543 295.166 497.23Z" fill="white"/>
<path opacity="0.1" d="M295.166 497.23C295.189 497.545 295.156 497.862 295.068 498.166C295.068 498.166 272.717 501.9 268.143 498.166C266.854 497.075 265.352 496.267 263.733 495.791C262.114 495.316 260.414 495.184 258.741 495.405C258.741 495.405 250.084 495.641 248.646 492.789C248.045 491.585 248.196 489.27 248.568 486.98C251.9 487.314 257.16 488.144 259.225 490.126C262.348 493.142 267.64 496.151 270.887 496.386C273.429 496.55 288.633 497.034 295.166 497.23Z" fill="black"/>
<path opacity="0.1" d="M223.76 502.502C223.76 502.502 213.306 506.348 206.119 506.832C202.303 507.088 200.297 504.746 199.271 502.483C201.931 503.379 205.622 504.321 207.563 503.457C209.862 502.437 218.017 501.776 222.59 501.495C222.938 501.876 223.331 502.215 223.76 502.502Z" fill="black"/>
<path d="M239.271 192.551C230.646 189.195 219.552 178.108 222.322 172.928C222.937 171.62 223.303 170.209 223.4 168.768C223.578 166.81 223.605 164.842 223.479 162.881C223.284 159.668 222.898 156.47 222.322 153.304C222.322 153.304 249.248 153.913 247.68 157.883C247.222 159.047 247.15 161.069 247.274 163.332C247.399 165.595 247.725 168.153 248.065 170.318C248.535 173.287 249.006 175.551 249.006 175.551C249.006 175.551 247.359 177.86 246.392 177.984C245.425 178.108 251.645 197.333 239.271 192.551Z" fill="#CF6F80"/>
<path opacity="0.1" d="M217.232 485.796L217.03 486.019C208.98 476.272 199.245 488.419 199.245 488.419L199.101 488.164L199.598 482.643L214.867 478.673L217.03 485.293L217.232 485.796Z" fill="black"/>
<path opacity="0.1" d="M276.774 478.673C276.774 478.673 270.894 478.549 267.758 481.322C264.621 484.095 249.463 481.924 250.117 481.322C250.31 481.024 250.427 480.682 250.456 480.328L252.514 478.673L276.611 477.96C276.702 478.398 276.774 478.673 276.774 478.673Z" fill="black"/>
<path d="M227.249 402.135C226.811 403.219 226.478 404.343 226.256 405.491C225.711 408.634 225.559 411.834 225.805 415.015C226.046 419.594 225.805 450.278 225.805 450.278C225.805 450.278 220.637 458.461 217.755 461.346C214.874 464.23 223.635 469.411 223.635 469.411C224.942 476.868 217.023 485.293 217.023 485.293C208.974 475.546 199.239 487.7 199.239 487.7C199.239 487.7 193.946 478.542 192.627 475.272C191.307 472.001 197.795 469.738 200.075 468.41C202.355 467.082 199.964 459.252 199.964 459.252C199.964 459.252 198.036 452.391 195.75 446.131C193.463 439.871 198.272 408.709 198.272 408.709C198.272 408.709 198.52 403.175 199.115 401.246C199.415 399.853 199.474 398.42 199.291 397.007C199.252 396.53 199.206 396.131 199.173 395.862C199.141 395.594 199.115 395.47 199.115 395.47L199.206 395.313L202.473 389.217C202.473 389.217 228.817 398.296 227.249 402.135Z" fill="#6C63FF"/>
<path d="M276.774 477.953C276.774 477.953 270.894 477.829 267.758 480.57C264.621 483.311 249.463 481.172 250.117 480.57C250.77 479.968 250.718 475.514 250.718 475.514C241.825 463.36 249.411 458.428 249.411 458.428C249.411 458.428 245.438 439.295 244.72 432.198C244.217 427.24 243.596 413.916 243.263 406.308C243.119 403.038 243.034 400.788 243.034 400.788L250.3 399.323L251.234 399.133L268.757 395.614C268.757 395.614 269.241 398.884 269.567 401.56C269.73 402.702 269.822 403.853 269.842 405.007C269.724 406.315 269.842 410.41 269.842 410.41L270.436 422.688C270.048 423.975 269.848 425.313 269.842 426.658C269.959 428.221 272.24 450.605 272.24 450.605C272.24 450.605 276.206 463.962 274.853 464.924C273.501 465.885 276.774 477.953 276.774 477.953Z" fill="#6C63FF"/>
<path opacity="0.1" d="M247.679 157.883C247.222 159.047 247.15 161.069 247.274 163.332C243.668 165.506 239.522 166.618 235.313 166.539C231.103 166.46 227.002 165.195 223.479 162.887C223.285 159.673 222.899 156.473 222.322 153.304C222.322 153.304 249.248 153.9 247.679 157.883Z" fill="black"/>
<path d="M258.088 143.427C258.093 145.784 257.722 148.127 256.99 150.367C255.353 155.387 251.996 159.665 247.513 162.447C243.03 165.228 237.709 166.333 232.491 165.567C227.272 164.801 222.493 162.212 218.996 158.259C215.5 154.306 213.512 149.242 213.384 143.964C213.384 143.78 213.384 143.61 213.384 143.427C213.333 140.456 213.874 137.504 214.975 134.745C216.075 131.985 217.714 129.472 219.795 127.353C221.876 125.234 224.357 123.55 227.095 122.402C229.832 121.253 232.771 120.661 235.739 120.661C238.707 120.661 241.646 121.253 244.384 122.402C247.121 123.55 249.603 125.234 251.683 127.353C253.764 129.472 255.403 131.985 256.504 134.745C257.604 137.504 258.145 140.456 258.094 143.427H258.088Z" fill="#CF6F80"/>
<path opacity="0.1" d="M239.271 192.551C230.646 189.195 219.552 178.108 222.322 172.928C222.937 171.62 223.303 170.209 223.4 168.768L235.207 178.481L242.511 184.479L248.065 170.324C248.535 173.294 249.006 175.557 249.006 175.557C249.006 175.557 247.359 177.866 246.392 177.991C245.425 178.115 251.645 197.333 239.271 192.551Z" fill="black"/>
<path d="M269.803 235.481L259.943 401.298L247.085 402.142L213.789 305.994L219.251 191.845L220.401 167.728L235.207 179.901L242.518 185.899L248.235 171.332L258.865 180.607L269.803 235.481Z" fill="#6C63FF"/>
<path opacity="0.1" d="M227.249 402.135C226.811 403.219 226.478 404.343 226.255 405.491C216.899 404.045 207.812 401.203 199.297 397.059L199.121 396.968L199.18 395.915L199.213 395.365L202.479 389.269C202.479 389.269 228.817 398.296 227.249 402.135Z" fill="black"/>
<path opacity="0.1" d="M250.45 405.517C248.058 405.924 245.646 406.199 243.224 406.341C243.08 403.071 242.995 400.821 242.995 400.821L250.26 399.355L250.45 405.517Z" fill="black"/>
<path opacity="0.1" d="M269.528 401.592C264.883 402.802 257.709 404.163 251.286 403.313L251.195 399.166L268.718 395.646C268.718 395.646 269.202 398.884 269.528 401.592Z" fill="black"/>
<path opacity="0.1" d="M251.168 404.071C224.38 408.65 199.846 395.522 199.846 395.522L200.081 391.074C200.081 391.074 200.689 340.649 199.003 336.783C197.318 332.917 196.004 313.313 196.958 310.304C197.912 307.296 193.476 262.175 193.476 262.175L192.757 243.86L166.453 233.191L178.213 208.649C179.802 205.208 181.168 201.668 182.303 198.052C184.348 191.681 193.842 185.421 193.842 185.421C193.842 185.421 203.577 179.168 207.425 179.403C211.274 179.639 216.318 173.87 216.318 173.87C220.042 164.365 223.413 168.669 223.413 168.669C223.413 169.121 223.413 168.669 223.23 170.076C221.924 180.509 244.36 213.476 244.681 214.058L246.817 266.165L248.98 332.106L251.168 404.071Z" fill="black"/>
<path d="M250.45 404.071C223.662 408.65 199.121 395.522 199.121 395.522L199.363 391.074C199.363 391.074 199.97 340.649 198.278 336.783C196.586 332.917 195.279 313.313 196.24 310.304C197.2 307.296 192.757 262.175 192.757 262.175L192.032 243.86L165.714 233.152L177.475 208.61C179.06 205.167 180.426 201.628 181.565 198.013C183.604 191.642 193.104 185.382 193.104 185.382C193.104 185.382 202.839 179.129 206.681 179.364C210.522 179.6 215.573 173.83 215.573 173.83C219.304 164.326 223.413 168.63 223.413 168.63C223.413 169.082 223.021 169.284 223.23 170.037C226.105 180.156 243.642 213.437 243.962 214.019L246.124 266.126L248.287 332.067L250.45 404.071Z" fill="white"/>
<path opacity="0.1" d="M243.23 215.504C240.349 214.3 225.086 196.855 225.086 196.855V192.885C224.531 191.576 221.231 192.374 218.552 193.29L219.702 169.173L221.009 170.259C223.871 180.372 242.897 214.922 243.23 215.504Z" fill="black"/>
<path d="M243.955 214.058C241.067 212.855 225.805 195.41 225.805 195.41V191.439C225.249 190.131 221.95 190.929 219.271 191.845L220.427 167.728L221.734 168.813C224.602 178.926 243.635 213.483 243.955 214.058Z" fill="white"/>
<path opacity="0.1" d="M199.846 301.062C200.206 301.062 218.474 299.139 218.474 299.139C218.474 299.139 229.535 320.914 228.81 326.212C228.085 331.511 226.772 336.201 222.322 335.37C217.873 334.539 198.376 336.024 198.376 336.024L199.846 301.062Z" fill="black"/>
<path d="M199.121 299.616C199.48 299.616 217.749 297.693 217.749 297.693C217.749 297.693 228.804 319.475 228.085 324.767C227.366 330.059 226.04 334.755 221.597 333.924C217.154 333.094 197.651 334.579 197.651 334.579L199.121 299.616Z" fill="white"/>
<path d="M212.888 289.392C212.888 289.392 229.653 298.413 230.012 301.166C230.372 303.92 221.479 299.963 219.558 299.485C218.294 299.18 217.007 298.979 215.71 298.884L202.898 299.23L212.888 289.392Z" fill="#CF6F80"/>
<path opacity="0.1" d="M238.552 216.629C239.526 216.629 240.316 215.838 240.316 214.863C240.316 213.887 239.526 213.097 238.552 213.097C237.578 213.097 236.788 213.887 236.788 214.863C236.788 215.838 237.578 216.629 238.552 216.629Z" fill="black"/>
<path d="M238.552 215.909C239.526 215.909 240.316 215.119 240.316 214.143C240.316 213.168 239.526 212.377 238.552 212.377C237.578 212.377 236.788 213.168 236.788 214.143C236.788 215.119 237.578 215.909 238.552 215.909Z" fill="#3F3D56"/>
<path opacity="0.1" d="M241.799 293.082C242.773 293.082 243.563 292.291 243.563 291.316C243.563 290.34 242.773 289.549 241.799 289.549C240.825 289.549 240.035 290.34 240.035 291.316C240.035 292.291 240.825 293.082 241.799 293.082Z" fill="black"/>
<path d="M241.799 292.356C242.773 292.356 243.563 291.565 243.563 290.589C243.563 289.614 242.773 288.823 241.799 288.823C240.825 288.823 240.035 289.614 240.035 290.589C240.035 291.565 240.825 292.356 241.799 292.356Z" fill="#3F3D56"/>
<path opacity="0.1" d="M240.309 254.855C241.284 254.855 242.074 254.065 242.074 253.089C242.074 252.114 241.284 251.323 240.309 251.323C239.335 251.323 238.545 252.114 238.545 253.089C238.545 254.065 239.335 254.855 240.309 254.855Z" fill="black"/>
<path d="M240.309 254.136C241.284 254.136 242.074 253.345 242.074 252.37C242.074 251.394 241.284 250.604 240.309 250.604C239.335 250.604 238.545 251.394 238.545 252.37C238.545 253.345 239.335 254.136 240.309 254.136Z" fill="#3F3D56"/>
<path d="M280.975 298.517C280.975 298.517 282.177 300.323 280.975 301.166C279.773 302.01 281.093 304.051 281.093 304.051C281.093 304.051 278.094 305.811 279.414 307.394C280.734 308.977 279.897 316.126 279.897 316.126L276.291 322.105C276.291 322.105 276.506 325.957 276.519 331.164C276.519 339.288 276.042 350.709 273.403 355.916L273.769 398.636C273.769 398.636 261.139 403.254 250.567 401.847L248.999 333.296C248.999 333.296 251.286 294.423 252.129 286.966C252.622 283.094 252.823 279.191 252.73 275.29C252.73 275.29 252.371 263.62 251.162 258.204C251.162 258.204 249.855 234.741 249.725 228.246C249.666 225.139 249.829 216.073 250.012 207.452C250.215 198.026 250.443 189.137 250.443 189.137L248.058 170.246C248.058 170.246 250.443 170.004 251.162 170.965C251.484 171.266 251.834 171.536 252.207 171.77C256.324 174.556 270.868 183.125 270.868 183.125C270.868 183.125 278.917 186.33 280.845 190.922C282.772 195.514 284.111 198.772 285.046 200.08C285.98 201.388 286.49 207.537 286.49 207.537C286.49 207.537 289.26 218.853 291.423 220.77C293.585 222.686 295.166 234.879 295.166 234.879L276.055 249.923C276.055 249.923 274.376 274.95 274.017 275.918C273.658 276.886 280.975 298.517 280.975 298.517Z" fill="white"/>
<path d="M281.7 298.517C281.7 298.517 282.896 300.323 281.7 301.166C280.505 302.01 281.812 304.051 281.812 304.051C281.812 304.051 278.832 305.83 280.139 307.413C281.446 308.996 280.622 316.146 280.622 316.146L277.016 322.124C277.016 322.124 277.231 325.977 277.251 331.184C277.251 339.308 276.774 350.729 274.134 355.935L274.494 398.655C274.494 398.655 261.845 403.273 251.286 401.867L249.725 333.316C249.725 333.316 252.011 294.442 252.854 286.985C253.348 283.114 253.547 279.211 253.449 275.309C253.449 275.309 253.089 263.64 251.887 258.224C251.887 258.224 250.58 234.761 250.443 228.266C250.384 225.159 250.554 216.093 250.731 207.471C250.933 198.046 251.162 189.156 251.162 189.156L248.013 170.01C248.013 170.01 251.162 170.01 251.887 170.985C252.206 171.29 252.557 171.559 252.933 171.79C257.049 174.576 271.599 183.145 271.599 183.145C271.599 183.145 279.642 186.35 281.57 190.942C283.497 195.534 284.837 198.791 285.777 200.1C286.718 201.408 287.215 207.556 287.215 207.556C287.215 207.556 289.985 218.873 292.148 220.789C294.311 222.706 295.872 234.872 295.872 234.872L276.761 249.917C276.761 249.917 275.082 274.943 274.716 275.911C274.35 276.879 281.7 298.517 281.7 298.517Z" fill="white"/>
<path opacity="0.1" d="M258.813 194.71L260.538 199.746L251.456 208.904C251.659 199.485 251.887 190.589 251.887 190.589L248.738 171.443C248.738 171.443 251.887 171.443 252.612 172.418C252.93 172.721 253.281 172.989 253.658 173.216L261.381 195.521L258.813 194.71Z" fill="black"/>
<path d="M258.088 193.264L259.819 198.301L250.737 207.458C250.94 198.033 251.168 189.143 251.168 189.143L248.013 169.997C248.013 169.997 251.168 169.997 251.887 170.972C252.208 171.275 252.558 171.544 252.933 171.776L260.662 194.075L258.088 193.264Z" fill="white"/>
<path opacity="0.1" d="M258.088 143.427C258.093 145.784 257.722 148.127 256.99 150.367C256.867 150.387 256.741 150.381 256.619 150.351C256.498 150.32 256.384 150.266 256.284 150.191C256.114 144.304 253.22 138.777 249.659 134.073C248.659 132.653 247.447 131.396 246.066 130.345C244.669 129.295 242.931 128.803 241.192 128.965C239.231 129.233 237.5 130.567 235.52 130.737C232.907 130.953 230.568 129.141 227.974 129.05C226.919 129.06 225.879 129.295 224.923 129.739C223.966 130.184 223.115 130.827 222.427 131.627C221.064 133.241 220.052 135.121 219.454 137.148C218.427 140.221 217.867 143.432 217.794 146.672C217.762 148.503 217.585 150.799 215.887 151.466C216.014 150.119 215.861 148.76 215.437 147.476C215.013 146.191 214.328 145.008 213.423 144.003L213.384 143.964C213.384 143.78 213.384 143.61 213.384 143.427C213.333 140.456 213.874 137.504 214.975 134.745C216.075 131.985 217.714 129.472 219.795 127.353C221.876 125.234 224.357 123.55 227.095 122.402C229.832 121.253 232.771 120.661 235.739 120.661C238.707 120.661 241.646 121.253 244.384 122.402C247.121 123.55 249.603 125.234 251.683 127.353C253.764 129.472 255.403 131.985 256.504 134.745C257.604 137.504 258.145 140.456 258.094 143.427H258.088Z" fill="black"/>
<path d="M244.994 107.889C241.599 106.29 237.737 105.988 234.135 107.039C232.325 107.575 230.62 108.445 228.784 108.884C224.864 109.832 220.29 108.805 216.925 111.101C215.057 112.409 213.933 114.476 212.888 116.484L210.274 121.469C208.85 124.196 207.412 126.97 206.818 129.972C206.223 132.975 206.583 136.337 208.484 138.75C209.869 140.51 211.914 141.615 213.417 143.27C214.317 144.277 215 145.459 215.423 146.742C215.845 148.025 215.999 149.382 215.873 150.727C217.579 150.073 217.742 147.771 217.781 145.939C217.854 142.699 218.414 139.488 219.441 136.415C220.037 134.388 221.05 132.507 222.414 130.894C223.103 130.095 223.954 129.452 224.91 129.008C225.866 128.564 226.906 128.328 227.961 128.317C230.574 128.409 232.92 130.214 235.507 129.998C237.467 129.835 239.205 128.494 241.178 128.232C242.918 128.067 244.657 128.56 246.053 129.612C247.434 130.662 248.644 131.92 249.64 133.341C253.207 138.044 256.101 143.558 256.271 149.458C257.01 150.001 258.075 149.295 258.44 148.457C258.806 147.62 258.819 146.639 259.283 145.841C259.819 144.919 260.845 144.428 261.649 143.735C263.687 141.975 264.197 139.012 264.118 136.324C264.04 133.635 263.517 130.908 264.027 128.265C264.334 126.643 265.026 125.125 265.405 123.523C265.784 121.92 265.83 120.121 264.935 118.741C263.628 116.713 260.878 116.314 258.48 116.125C255.755 115.889 253.318 116.19 251.58 113.894C250.764 112.696 249.846 111.571 248.836 110.532C248.49 110.192 244.994 108.033 244.994 107.889Z" fill="#512E4E"/>
<path opacity="0.1" d="M173.979 245.829L167.152 233.191L164.989 252.69C164.989 252.69 166.191 261.351 165.949 262.678C165.708 264.006 170.876 275.911 170.876 275.911C170.876 275.911 187.948 306.354 194.92 307.923L218.474 291.074L212.228 283.133C212.228 283.133 210.065 282.289 209.523 283.133C209.523 283.133 197.925 263.156 196.723 261.71C195.521 260.265 195.756 257.38 195.756 257.38C195.756 257.38 193.953 255.457 194.554 253.652C195.155 251.846 191.072 245.587 191.072 245.587L194.796 242.1L173.979 245.829Z" fill="black"/>
<path d="M167.511 231.752L165.708 233.191L163.545 252.69C163.545 252.69 164.747 261.351 164.505 262.678C164.264 264.006 169.438 275.911 169.438 275.911C169.438 275.911 186.504 306.354 193.476 307.923L217.036 291.074L210.784 283.133C210.784 283.133 208.621 282.289 208.079 283.133C208.079 283.133 196.481 263.156 195.279 261.71C194.077 260.265 194.319 257.38 194.319 257.38C194.319 257.38 192.515 255.457 193.117 253.652C193.718 251.846 189.628 245.587 189.628 245.587L193.352 242.1L167.511 231.752Z" fill="white"/>
<path opacity="0.1" d="M279.414 308.139C280.72 309.729 279.897 316.865 279.897 316.865L276.291 322.844C276.291 322.844 276.506 326.703 276.519 331.903L270.456 333.8C269.908 333.971 269.327 334.009 268.762 333.91C268.196 333.811 267.663 333.578 267.205 333.23C266.748 332.883 266.381 332.431 266.134 331.912C265.886 331.393 265.767 330.823 265.784 330.248L266.83 296.49L280.975 301.906C279.773 302.743 281.093 304.797 281.093 304.797C281.093 304.797 278.094 306.55 279.414 308.139Z" fill="black"/>
<path d="M280.139 307.413C281.446 309.003 280.622 316.146 280.622 316.146L277.016 322.124C277.016 322.124 277.231 325.977 277.251 331.184L271.077 333.113C270.54 333.28 269.971 333.317 269.418 333.219C268.864 333.121 268.342 332.893 267.895 332.552C267.447 332.212 267.088 331.77 266.846 331.262C266.604 330.754 266.486 330.196 266.503 329.633L267.555 295.77L281.707 301.186C280.498 302.023 281.818 304.071 281.818 304.071C281.818 304.071 278.832 305.83 280.139 307.413Z" fill="white"/>
<path d="M284.824 291.322C284.824 291.322 283.863 297.464 281.459 297.824C279.054 298.184 277.976 307.76 275.578 307.42C273.181 307.08 274.768 298.517 274.853 296.856C274.938 295.194 272.24 288.313 274.259 286.75C276.278 285.187 282.667 286.75 282.667 286.75L284.824 291.322Z" fill="#CF6F80"/>
<path opacity="0.1" d="M289.94 244.023L294.474 234.866C294.474 234.866 296.277 241.845 296.277 245.573C296.277 249.302 298.799 249.668 298.799 249.668C298.799 249.668 301.563 252.939 300.106 255.32C298.649 257.701 298.061 263.627 298.061 263.627C298.061 263.627 298.538 274.937 296.375 276.5C294.213 278.063 293.762 281.798 293.762 281.798C293.762 281.798 289.789 288.895 289.913 290.583C290.038 292.271 284.386 303.698 284.386 303.698C284.386 303.698 287.15 289.497 271.044 283.362C271.044 283.362 270.92 278.541 272.122 277.219C273.324 275.898 275.199 275.296 274.023 268.618C272.847 261.939 273.684 253.959 273.684 252.357C273.684 250.754 277.29 240.759 277.29 240.759L289.94 244.023Z" fill="black"/>
<path d="M291.9 233.557L295.859 234.866C295.859 234.866 297.669 241.845 297.669 245.573C297.669 249.302 300.191 249.668 300.191 249.668C300.191 249.668 302.955 252.939 301.498 255.32C300.041 257.701 299.459 263.627 299.459 263.627C299.459 263.627 299.936 274.937 297.773 276.5C295.611 278.063 295.127 281.798 295.127 281.798C295.127 281.798 291.161 288.895 291.285 290.583C291.41 292.271 285.751 303.698 285.751 303.698C285.751 303.698 288.522 289.497 272.41 283.362C272.41 283.362 272.292 278.541 273.494 277.219C274.696 275.898 276.572 275.296 275.395 268.618C274.219 261.939 275.056 253.959 275.056 252.357C275.056 250.754 278.662 240.759 278.662 240.759L291.9 233.557Z" fill="white"/>
<path opacity="0.1" d="M204.446 470.915C204.446 470.915 210.758 466.945 214.9 469.829C219.042 472.714 204.446 470.915 204.446 470.915Z" fill="black"/>
<path opacity="0.1" d="M253.488 458.637C253.488 458.637 259.074 457.918 263.765 462.974C268.457 468.031 253.488 458.637 253.488 458.637Z" fill="black"/>
<g opacity="0.1">
<path opacity="0.1" d="M261.662 142.302C260.858 142.996 259.826 143.493 259.29 144.415C258.833 145.206 258.819 146.181 258.454 147.031C258.088 147.882 257.023 148.575 256.284 148.039C256.114 142.152 253.214 136.624 249.653 131.915C248.657 130.494 247.447 129.236 246.066 128.186C244.667 127.134 242.927 126.642 241.185 126.806C239.225 127.074 237.5 128.409 235.52 128.572C232.907 128.795 230.561 126.983 227.967 126.891C226.913 126.902 225.874 127.138 224.918 127.583C223.962 128.029 223.113 128.674 222.427 129.475C221.063 131.086 220.05 132.964 219.454 134.989C218.427 138.063 217.868 141.273 217.794 144.513C217.755 146.338 217.585 148.614 215.9 149.295C215.939 149.778 215.939 150.264 215.9 150.747C217.598 150.093 217.768 147.79 217.807 145.959C217.88 142.719 218.44 139.508 219.467 136.435C220.063 134.407 221.076 132.527 222.44 130.914C223.128 130.115 223.977 129.472 224.933 129.028C225.888 128.583 226.927 128.348 227.98 128.337C230.594 128.428 232.946 130.234 235.533 130.018C237.493 129.854 239.231 128.513 241.198 128.252C242.94 128.087 244.68 128.579 246.079 129.632C247.46 130.681 248.67 131.939 249.666 133.36C253.227 138.064 256.128 143.578 256.297 149.478C257.036 150.021 258.101 149.314 258.467 148.477C258.832 147.64 258.846 146.659 259.303 145.861C259.839 144.938 260.871 144.448 261.675 143.754C263.713 141.995 264.223 139.032 264.144 136.343C264.144 136.258 264.144 136.173 264.144 136.095C264.02 138.423 263.4 140.798 261.662 142.302Z" fill="black"/>
<path opacity="0.1" d="M213.43 141.838C211.927 140.183 209.876 139.077 208.497 137.324C207.336 135.773 206.673 133.904 206.596 131.967C206.39 134.388 207.065 136.802 208.497 138.763C209.876 140.523 211.927 141.628 213.43 143.283C214.873 144.902 215.739 146.954 215.893 149.118C215.993 147.801 215.826 146.477 215.403 145.226C214.98 143.975 214.309 142.823 213.43 141.838Z" fill="black"/>
<path opacity="0.1" d="M265.418 122.09C265.033 123.693 264.347 125.217 264.033 126.832C263.848 127.912 263.78 129.009 263.831 130.103C263.853 129.48 263.92 128.859 264.033 128.245C264.347 126.623 265.033 125.106 265.418 123.503C265.643 122.619 265.716 121.703 265.634 120.795C265.593 121.231 265.521 121.664 265.418 122.09Z" fill="black"/>
</g>
<path opacity="0.1" d="M86.7218 497.511C121.883 497.511 150.386 492.928 150.386 487.275C150.386 481.621 121.883 477.038 86.7218 477.038C51.5609 477.038 23.0574 481.621 23.0574 487.275C23.0574 492.928 51.5609 497.511 86.7218 497.511Z" fill="#6C63FF"/>
<path d="M88.7734 291.172H84.6768V383.513H88.7734V291.172Z" fill="#535461"/>
<path d="M114.516 383.231L114.261 387.392L113.895 393.279L113.745 395.725L113.386 401.612L113.229 404.058L112.863 409.945L108.734 476.711C108.554 479.583 107.288 482.279 105.193 484.25C103.098 486.221 100.332 487.319 97.4567 487.32H75.9869C73.1126 487.319 70.3469 486.221 68.2529 484.25C66.1589 482.279 64.8942 479.583 64.7163 476.711L60.6066 409.9L60.2407 404.013L60.0904 401.566L59.7245 395.679L59.5743 393.233L59.2084 387.346L58.947 383.186C58.9016 382.385 59.0201 381.583 59.2953 380.83C59.5704 380.077 59.9963 379.388 60.5469 378.806C61.0976 378.223 61.7613 377.759 62.4973 377.443C63.2334 377.126 64.0263 376.964 64.8274 376.965H108.74C109.538 376.972 110.327 377.142 111.056 377.466C111.786 377.79 112.442 378.26 112.983 378.847C113.524 379.434 113.939 380.126 114.203 380.88C114.467 381.634 114.573 382.435 114.516 383.231Z" fill="#3F3D56"/>
<path d="M114.261 387.392L113.895 393.259H59.5481L59.1823 387.392H114.261Z" fill="#9D9CB5"/>
<path d="M113.745 395.705L113.386 401.579H60.0643L59.6984 395.705H113.745Z" fill="#9D9CB5"/>
<path d="M113.229 404.032L112.87 409.9H60.5805L60.2146 404.032H113.229Z" fill="#9D9CB5"/>
<path d="M52.9295 325.781C76.784 343.062 86.7414 370.09 86.7414 370.09C86.7414 370.09 57.9931 369.103 34.1321 351.821C10.271 334.539 0.333221 307.518 0.333221 307.518C0.333221 307.518 29.0684 308.499 52.9295 325.781Z" fill="#6C63FF"/>
<path d="M0.313614 307.518C0.313614 307.518 30.1596 324.1 39.7314 337.829C49.3033 351.559 86.7414 370.09 86.7414 370.09" stroke="#535461" stroke-width="2" stroke-miterlimit="10"/>
<path d="M68.3294 290.969C81.3119 300.368 86.7414 315.079 86.7414 315.079C86.7414 315.079 71.0932 314.543 58.1042 305.143C45.1152 295.744 39.6988 281.026 39.6988 281.026C39.6988 281.026 55.3404 281.563 68.3294 290.969Z" fill="#6C63FF"/>
<path d="M39.6988 281.026C39.6988 281.026 55.9415 290.053 61.1489 297.523C66.3563 304.993 86.7414 315.079 86.7414 315.079" stroke="#535461" stroke-width="2" stroke-miterlimit="10"/>
<path d="M105.591 314.334C90.6747 330.745 87.5189 352.194 87.5189 352.194C87.5189 352.194 108.551 347.026 123.454 330.608C138.358 314.19 141.526 292.748 141.526 292.748C141.526 292.748 120.508 297.922 105.591 314.334Z" fill="#6C63FF"/>
<path d="M141.54 292.755C141.54 292.755 122.108 309.578 117.169 321.169C112.229 332.76 87.5189 352.194 87.5189 352.194" stroke="#535461" stroke-width="2" stroke-miterlimit="10"/>
<path d="M653.154 308.558C653.154 308.558 642.367 254.829 646.497 248.144C646.497 248.144 646.647 241.93 646.398 234.009C646.398 233.708 646.398 233.407 646.398 233.1C647.125 233.584 647.882 234.021 648.666 234.408C652.47 236.365 656.838 236.929 661.014 236.004L657.748 232.36C656.963 231.49 656.147 230.548 655.977 229.397C655.807 228.246 656.278 227.219 656.683 226.192C659.786 218.343 659.949 208.472 653.971 202.481C648.921 197.444 647.692 190.942 642.21 186.344C638.205 182.975 636.003 178.036 633.926 173.261C632.168 169.225 630.397 165.157 629.391 160.879C628.607 157.536 628.294 154.076 627.216 150.812C626.138 147.548 624.119 144.376 620.963 142.917C619.839 142.4 618.591 142.106 617.565 141.419C616.219 140.51 615.409 139.032 614.436 137.736C609.49 131.195 592.927 135.048 585.086 137.704C582.955 138.373 580.981 139.467 579.284 140.922L579.356 140.804C579.415 140.706 579.487 140.608 579.552 140.51C578.694 141.205 577.953 142.033 577.357 142.963C576.214 144.775 575.737 146.888 574.783 148.85C573.633 151.172 567.236 157.654 569.987 160.264C570.18 160.439 570.401 160.581 570.64 160.683C571.673 161.113 572.81 161.227 573.907 161.01L573.789 161.291C572.85 163.594 572.368 166.058 572.372 168.545C572.372 179.292 581.225 188.005 592.156 188.005C594.211 188.007 596.254 187.691 598.212 187.07C598.258 187.318 598.297 187.567 598.343 187.815C598.343 187.913 598.376 188.012 598.389 188.11L598.043 188.594C598.025 188.564 598.006 188.535 597.984 188.509L587.726 202.86C586.158 203.965 577.128 210.506 576.619 215.412C576.083 220.783 575.547 227.069 575.547 227.069L575.475 228.416C575.027 228.791 574.503 229.064 573.939 229.217C573.375 229.369 572.784 229.397 572.208 229.299C569.007 228.776 569.007 241.073 569.007 241.073C569.007 241.073 566.877 243.035 565.413 241.335C563.95 239.634 560.082 245.397 560.082 245.397L535.842 246.443L535.286 246.476L533.98 242.427C533.839 242 533.536 241.646 533.136 241.441C532.736 241.237 532.271 241.198 531.843 241.335C531.742 241.368 531.644 241.41 531.549 241.459L531.458 241.511L531.288 241.629L531.203 241.708C531.156 241.75 531.112 241.796 531.072 241.845L530.994 241.937L530.955 241.976C530.804 242.185 530.704 242.426 530.663 242.68C530.622 242.935 530.641 243.195 530.719 243.441L531.843 246.914C527.165 247.856 522.382 250.512 526.283 257.825L506.512 254.168L512.908 259.545L545.93 266.368C545.492 267.153 545.78 268.291 547.145 269.893C553.025 276.807 563.741 278.685 568.053 279.169C569.192 281.719 570.614 284.133 572.293 286.364L571.921 293.252C571.921 293.252 561.003 345.751 559.004 348.413C560.013 347.268 560.937 346.05 561.767 344.77C558.599 355.556 554.169 370.319 553.006 372.53C551.137 376.062 549.406 390.355 551.536 391.27C552.189 391.552 554.058 391.414 556.723 391.212V392.396L556.606 437.261C556.606 437.261 557.142 464.78 555.672 467.403C554.201 470.026 553.809 475.527 553.809 475.527C553.809 475.527 547.929 486.378 543.271 490.741C543.239 490.775 543.204 490.806 543.166 490.833L543.022 489.813C543.022 489.813 537.423 496.89 525.035 496.491C525.035 496.491 517.58 501.345 528.635 501.606C539.69 501.868 553.809 501.214 553.809 501.214C553.809 501.214 563.669 486.169 571.927 488.131V499.533H574.456V487.948C575.629 487.175 576.632 486.172 577.406 484.999C578.18 483.827 578.708 482.509 578.958 481.126C579.174 479.7 579.016 478.243 578.498 476.897C577.98 475.552 577.12 474.365 576.004 473.453C575.503 472.999 575.101 472.447 574.823 471.83C574.545 471.213 574.398 470.545 574.391 469.869L574.299 469.947C574.299 469.718 574.24 469.483 574.214 469.241C573.489 463.354 572.581 451.207 575.789 442.219C580.186 429.896 581.519 412.732 578.317 402.515C577.284 399.249 576.436 395.927 575.776 392.566C575.697 392.14 575.625 391.735 575.56 391.356C577.749 391.652 579.916 392.089 582.048 392.664C589.464 394.711 605.687 395.09 619.538 394.979C619.571 395.359 619.61 395.758 619.656 396.157C619.903 398.93 620.419 401.673 621.198 404.346C622.936 409.579 623.733 432.65 623.733 432.65C623.733 432.65 625.974 451.619 624.752 459.337C624.099 463.628 623.446 467.939 623.073 472.269V472.354C623.073 472.354 619.401 482.82 616.716 488.504C616.651 488.648 616.579 488.792 616.513 488.929C615.797 488.995 615.093 489.151 614.416 489.394C614.416 489.394 610.816 496.589 607.229 497.78C603.642 498.97 604.831 502.888 612.953 501.449C621.074 500.01 633.338 498.833 633.338 498.833L633.867 491.494L636.363 488.367L635.709 495.686L638.369 495.163L638.016 486.261L642.099 481.146C642.099 481.146 647.032 476.75 639.701 468.103V468.292C639.623 468.168 639.551 468.037 639.466 467.913V467.874C638.251 465.99 637.284 462.477 639.055 456.243C642.256 444.98 644.118 434.756 644.118 434.756C644.118 434.756 651.266 407.368 642.674 394.41H643.053C642.173 392.587 641.55 390.649 641.204 388.654C641.161 388.419 641.121 388.177 641.087 387.928C647.444 387.562 653.684 386.41 658.773 383.925C658.754 383.899 655.689 318.906 653.154 308.558ZM572.444 263.228V263.359L571.137 263.424L572.444 263.228ZM567.961 263.849C567.747 263.897 567.545 263.993 567.373 264.131C566.812 264.926 566.459 265.851 566.348 266.819L564.309 266.361C564.309 266.361 562.878 266.054 560.82 265.707L559.847 264.726C562.525 264.503 565.309 264.176 567.961 263.849Z" fill="url(#paint1_linear)"/>
<path d="M635.409 486.352L634.631 495.621L637.238 495.098L636.846 485.044L635.409 486.352Z" fill="#1D2366"/>
<path d="M575.932 442.344C572.79 451.305 573.678 463.399 574.384 469.273C574.645 471.445 574.887 472.766 574.887 472.766C574.887 472.766 570.189 483.481 569.797 483.886C569.405 484.292 555.972 492.501 555.972 492.501L546.583 497.989C546.583 497.989 537.057 493.809 541.624 492.37C542.557 491.995 543.398 491.422 544.087 490.689C548.661 486.339 554.404 475.527 554.404 475.527C554.404 475.527 554.796 470.039 556.233 467.429C557.671 464.819 557.148 437.392 557.148 437.392L557.259 392.683V386.855L575.129 386.986C575.242 388.965 575.499 390.932 575.9 392.873C576.541 396.223 577.372 399.534 578.389 402.789C581.538 412.987 580.232 430.066 575.932 442.344Z" fill="#FFB0B1"/>
<path opacity="0.1" d="M574.887 472.766C574.887 472.766 570.19 483.481 569.798 483.886C569.406 484.292 555.972 492.501 555.972 492.501L546.583 497.989C546.583 497.989 537.057 493.809 541.624 492.37C542.557 491.995 543.398 491.422 544.087 490.689L544.492 493.547L547.622 493.417L574.41 469.286C574.646 471.445 574.887 472.766 574.887 472.766Z" fill="black"/>
<path d="M574.561 469.895L547.622 494.189L544.492 494.319L543.839 489.741C543.839 489.741 538.364 496.792 526.198 496.399C526.198 496.399 518.893 501.233 529.72 501.495C540.546 501.757 554.371 501.102 554.371 501.102C554.371 501.102 564.028 486.058 572.11 488.02V499.382H574.593V487.916C575.748 487.138 576.733 486.134 577.49 484.965C578.246 483.796 578.759 482.485 578.997 481.113C579.212 479.699 579.06 478.253 578.555 476.915C578.05 475.577 577.21 474.392 576.116 473.473C575.627 473.014 575.236 472.46 574.969 471.844C574.702 471.229 574.563 470.566 574.561 469.895Z" fill="#1D2366"/>
<path d="M637.892 456.315C636.154 462.529 637.101 466.029 638.29 467.906V467.946C639.815 470.263 640.876 472.856 641.413 475.579L641.518 476.168L629.261 494.058L622.609 496.674C622.609 496.674 611.914 493.018 613.867 491.971C614.357 491.716 615.122 490.355 615.997 488.478C618.611 482.82 622.217 472.38 622.217 472.38V472.295C622.596 467.985 623.197 463.687 623.864 459.409C625.059 451.71 622.864 432.813 622.864 432.813C622.864 432.813 622.08 409.834 620.381 404.608C619.614 401.951 619.105 399.226 618.859 396.471C618.506 393.2 618.428 390.505 618.428 390.505C618.428 390.505 625.471 380.693 638.382 391.29C639.414 392.135 640.322 393.122 641.08 394.221C649.999 406.923 642.818 434.906 642.818 434.906C642.818 434.906 641.021 445.084 637.892 456.315Z" fill="#FFB0B1"/>
<path opacity="0.1" d="M641.537 476.168L629.28 494.058L622.629 496.674C622.629 496.674 611.933 493.018 613.887 491.971C614.377 491.716 615.141 490.355 616.017 488.478C620.545 488.439 622.89 492.756 622.89 492.756L628.627 491.84C628.627 491.84 636.193 476.953 637.892 476.043C639.59 475.134 638.153 469.247 638.153 469.247V467.749C638.199 467.802 638.238 467.86 638.29 467.913V467.952C639.815 470.27 640.876 472.863 641.413 475.586L641.537 476.168Z" fill="black"/>
<path d="M623.282 493.142C623.282 493.142 620.015 487.137 613.756 489.355C613.756 489.355 610.235 496.55 606.713 497.714C603.191 498.879 604.367 502.803 612.325 501.371C620.283 499.938 632.279 498.754 632.279 498.754L632.802 491.435L640.891 481.119C640.891 481.119 645.713 476.743 638.539 468.129V469.627C638.539 469.627 639.976 475.514 638.277 476.423C636.578 477.332 629.039 492.226 629.039 492.226L623.282 493.142Z" fill="#1D2366"/>
<path opacity="0.1" d="M575.149 386.973C575.261 388.952 575.519 390.919 575.919 392.86C568.563 391.781 561.735 392.317 557.259 392.67V386.842L575.149 386.973Z" fill="black"/>
<path opacity="0.1" d="M641.805 395.849C641.805 395.849 631.351 396.359 618.885 396.464C618.532 393.194 618.454 390.499 618.454 390.499C618.454 390.499 625.497 380.687 638.408 391.284C639.44 392.129 640.349 393.115 641.106 394.214C641.309 394.772 641.542 395.318 641.805 395.849Z" fill="black"/>
<path d="M641.805 394.672C641.805 394.672 596.017 396.889 582.061 392.971C568.105 389.053 554.273 392.448 552.189 391.539C550.105 390.629 551.797 376.389 553.627 372.864C555.456 369.338 565.492 333.682 565.492 333.682L575.149 283.276L585.321 280.47L586.04 280.268L603.766 275.375L616.755 271.784C616.755 271.784 642.583 372.733 640.368 380.177C639.563 383.027 639.434 386.026 639.989 388.935C640.327 390.922 640.939 392.853 641.805 394.672Z" fill="#1D2366"/>
<path d="M541.487 248.805C541.487 248.805 532.34 258.616 539.265 264.085C546.191 269.553 550.745 264.608 550.745 264.608L541.487 248.805Z" fill="#C7DAF5"/>
<path opacity="0.1" d="M541.487 248.805C541.487 248.805 532.34 258.616 539.265 264.085C546.191 269.553 550.745 264.608 550.745 264.608L541.487 248.805Z" fill="black"/>
<path d="M615.39 184.296C615.39 184.296 614.318 185.317 612.704 186.821C610.404 188.973 607 192.119 603.982 194.755C599.8 198.399 596.35 201.074 597.585 198.791C598.82 196.508 598.585 192.531 597.971 188.81C597.925 188.561 597.886 188.312 597.84 188.07C597.332 185.337 596.657 182.637 595.821 179.986C595.821 179.986 602.577 171.247 606.314 167.799C607.706 166.491 608.679 165.955 608.738 166.864C608.804 168.087 609.718 170.789 610.855 173.654C610.888 173.745 610.921 173.83 610.96 173.922C611.718 175.884 612.574 177.899 613.325 179.639C614.475 182.308 615.39 184.296 615.39 184.296Z" fill="#FFB0B1"/>
<path opacity="0.1" d="M610.96 173.922C610.325 177.341 608.785 180.526 606.5 183.145C604.215 185.764 601.269 187.72 597.971 188.81C597.451 185.824 596.733 182.876 595.821 179.986C595.821 179.986 608.542 163.535 608.738 166.864C608.784 168.127 609.777 170.926 610.96 173.922Z" fill="black"/>
<path opacity="0.1" d="M596.703 193.205L598.35 190.883C598.35 190.883 599.441 197.542 603.453 194.605C607.464 191.668 607.66 216.707 607.66 216.707L603.354 281.157L572.241 279.293L573.123 248.151L576.645 232.452L585.354 209.63L590.535 202.088L596.703 193.205Z" fill="black"/>
<path d="M607.66 217.106L603.74 275.381L603.328 281.556L585.981 280.516L585.328 280.477L572.261 279.692L573.143 248.543L576.664 232.844L585.374 210.022L590.555 202.481L596.723 193.565L598.369 191.249C598.369 191.249 599.46 197.908 603.472 194.971L603.557 194.912C607.477 192.427 607.66 217.106 607.66 217.106Z" fill="#1D2366"/>
<path d="M577.102 227.389C577.102 227.389 575.541 230.66 572.404 230.13C569.268 229.6 569.275 241.904 569.275 241.904C569.275 241.904 567.191 243.866 565.753 242.166C564.316 240.465 560.526 246.214 560.526 246.214L536.783 247.261C536.783 247.261 547.348 252.095 545.276 266.721C545.276 266.721 581.146 264.497 582.323 261.102C583.499 257.707 577.102 227.389 577.102 227.389Z" fill="white"/>
<path opacity="0.03" d="M577.102 227.389C577.102 227.389 575.541 230.66 572.404 230.13C569.268 229.6 569.275 241.904 569.275 241.904C569.275 241.904 567.191 243.866 565.753 242.166C564.316 240.465 560.526 246.214 560.526 246.214L536.783 247.261C536.783 247.261 547.348 252.095 545.276 266.721C545.276 266.721 581.146 264.497 582.323 261.102C583.499 257.707 577.102 227.389 577.102 227.389Z" fill="black"/>
<path d="M508.1 254.947L514.359 260.298L565.884 271.136L559.494 264.608L508.1 254.947Z" fill="white"/>
<path d="M596.801 195.266C595.945 196.574 593.495 203.272 591.45 209.12C589.745 213.993 588.32 218.277 588.32 218.277C588.32 218.277 584.995 239.955 583.296 243.873C581.597 247.791 582.519 263.071 582.519 263.071L576.187 300.807C576.187 300.807 573.319 320.267 568.889 331.89C564.518 343.331 559.651 348.694 559.5 348.864C561.46 346.209 572.143 293.919 572.143 293.919L575.671 227.971C575.671 227.971 576.187 221.705 576.71 216.348C577.233 210.991 587.817 203.678 587.817 203.678L598.023 189.15C599.049 190.523 598.363 192.917 596.801 195.266Z" fill="white"/>
<path d="M570.189 280.019C570.189 280.019 555.162 279.365 547.883 270.613C540.605 261.861 564.708 267.12 564.708 267.12L570.974 268.559L570.189 280.019Z" fill="#FFB0B1"/>
<path opacity="0.1" d="M640.368 380.183C639.564 383.034 639.434 386.032 639.989 388.942C623.596 390.106 606.059 385.671 606.059 385.671C602.793 388.68 594.188 393.115 594.188 393.115L589.497 334.899C586.498 327.05 585.322 285.926 585.322 285.926C585.322 285.926 585.589 283.774 585.975 280.549C585.975 280.47 585.975 280.385 586.008 280.307C587.177 271.3 589.497 254.391 590.633 252.108C592.201 248.968 585.812 240.615 585.812 240.615L588.719 215.792L589.072 212.796C595.2 210.055 599.898 201.303 599.898 201.303L603.505 194.978C607.425 192.459 607.628 217.139 607.628 217.139L603.707 275.414L616.696 271.823C616.696 271.823 642.583 372.739 640.368 380.183Z" fill="black"/>
<path d="M657.192 384.206C639.323 393.089 606.844 384.86 606.844 384.86C603.577 387.869 594.972 392.304 594.972 392.304L590.274 334.088C587.282 326.239 586.106 285.115 586.106 285.115C586.106 285.115 589.882 254.43 591.45 251.297C591.907 250.381 591.685 249.021 591.143 247.555C588.477 240.581 587.496 233.075 588.281 225.649L589.536 214.981L589.882 211.991C596.017 209.244 600.715 200.492 600.715 200.492L603.982 194.762L609.993 184.205L612.841 179.207L613.325 179.645L617.016 182.995C617.016 182.995 618.585 184.303 620.937 186.265C626.053 190.582 634.893 198.183 639.453 202.834C643.465 206.928 644.732 222.856 645.098 234.846C645.34 242.741 645.196 248.929 645.196 248.929C641.152 255.594 651.73 309.107 651.73 309.107C654.193 319.449 657.192 384.206 657.192 384.206Z" fill="white"/>
<path opacity="0.03" d="M622.89 200.361C622.89 200.361 610.627 223.733 612.051 232.615C613.475 241.498 617.526 251.552 615.573 253.9C614.901 254.79 614.034 255.512 613.037 256.01C612.041 256.508 610.943 256.769 609.829 256.772C607.869 256.903 602.642 260.559 602.642 260.952C602.642 261.344 597.814 261.344 593.495 263.176C589.176 265.007 582.8 266.047 582.8 266.047C582.8 266.047 570.386 265.655 569.229 266.832C568.073 268.01 566.883 275.054 569.36 280.673C571.836 286.292 574.587 290.485 576.664 291.25C578.742 292.015 591.927 287.594 602.623 286.547C613.318 285.5 624.929 277.017 624.929 277.017C624.929 277.017 637.715 272.438 639.956 264.739C642.197 257.04 637.219 214.725 637.219 214.725C637.219 214.725 633.455 195.004 622.89 200.361Z" fill="black"/>
<path opacity="0.03" d="M621.322 198.399C621.322 198.399 609.058 221.777 610.496 230.653C611.933 239.529 615.971 249.59 614.011 251.945C613.342 252.835 612.476 253.558 611.48 254.056C610.485 254.555 609.387 254.815 608.274 254.816C606.314 254.947 601.087 258.603 601.087 258.996C601.087 259.388 596.259 259.388 591.94 261.213C587.621 263.038 581.244 264.085 581.244 264.085C581.244 264.085 568.83 263.692 567.681 264.87C566.531 266.047 565.328 273.099 567.811 278.711C570.294 284.323 573.038 288.522 575.116 289.288C577.194 290.053 590.379 285.631 601.074 284.591C611.77 283.551 623.38 275.054 623.38 275.054C623.38 275.054 636.16 270.476 638.375 262.783C640.59 255.091 635.638 212.763 635.638 212.763C635.638 212.763 631.887 193.048 621.322 198.399Z" fill="black"/>
<path d="M622.505 199.184C622.505 199.184 610.241 222.562 611.678 231.438C613.116 240.314 617.154 250.375 615.2 252.723C614.531 253.616 613.664 254.34 612.668 254.84C611.671 255.339 610.572 255.6 609.457 255.601C607.497 255.732 602.27 259.388 602.27 259.774C602.27 260.16 597.448 260.167 593.123 261.998C588.797 263.83 582.427 264.87 582.427 264.87C582.427 264.87 570.013 264.477 568.857 265.655C567.7 266.832 566.511 273.883 568.987 279.496C571.464 285.108 574.214 289.307 576.292 290.073C578.37 290.838 591.555 286.416 602.25 285.37C612.946 284.323 624.556 275.839 624.556 275.839C624.556 275.839 637.343 271.26 639.584 263.562C641.825 255.863 636.879 213.548 636.879 213.548C636.879 213.548 633.063 193.859 622.505 199.184Z" fill="white"/>
<path opacity="0.1" d="M622.237 261.887C622.237 261.887 612.436 259.925 615.847 263.195C619.258 266.466 619.238 269.331 623.413 269.2C627.588 269.069 622.237 261.887 622.237 261.887Z" fill="black"/>
<path opacity="0.1" d="M638.8 332.256C638.8 332.256 634.37 335.259 642.844 342.179C651.319 349.1 638.8 332.256 638.8 332.256Z" fill="black"/>
<path opacity="0.1" d="M630.345 356.936C630.345 357.329 628.777 371.327 634.644 374.826C640.512 378.326 630.345 356.936 630.345 356.936Z" fill="black"/>
<path d="M537.188 247.228C532.457 247.392 522.239 248.837 527.537 258.734C532.222 267.493 540.095 261.638 544.525 257.197C543.444 253.056 540.818 249.488 537.188 247.228Z" fill="#FFB0B1"/>
<path d="M544.584 257.119L544.78 256.916L544.584 257.119Z" fill="#FFB0B1"/>
<path opacity="0.1" d="M620.937 186.664C615.919 190.098 611.711 192.996 610.888 193.598C608.64 195.266 604.354 205.058 601.59 210.055C599.389 214.078 592.234 215.111 589.536 215.367L589.882 212.377C596.017 209.63 600.715 200.878 600.715 200.878L612.841 179.593L617.016 183.394C617.016 183.394 618.585 184.702 620.937 186.664Z" fill="black"/>
<path d="M620.937 186.272C615.919 189.706 611.711 192.603 610.888 193.212C608.64 194.873 604.354 204.665 601.59 209.663C599.389 213.685 592.234 214.719 589.536 214.974L589.882 211.985C596.017 209.237 600.715 200.485 600.715 200.485L612.841 179.201L617.016 182.988C617.016 182.988 618.585 184.283 620.937 186.272Z" fill="#DCE7FF"/>
<path d="M611.28 169.605C611.283 173.531 610.093 177.366 607.869 180.6C605.243 184.425 601.334 187.18 596.852 188.365C592.37 189.551 587.613 189.089 583.442 187.063C579.271 185.037 575.964 181.582 574.12 177.324C572.277 173.066 572.019 168.287 573.394 163.855C574.769 159.422 577.685 155.631 581.613 153.167C585.542 150.703 590.222 149.731 594.806 150.426C599.389 151.122 603.571 153.439 606.594 156.958C609.617 160.477 611.279 164.964 611.28 169.605Z" fill="#FFB0B1"/>
<path opacity="0.1" d="M645.098 234.853C642.445 233.219 640.284 230.895 638.846 228.128C637.754 225.97 637.029 223.478 635.167 221.947C633.488 220.573 631.247 220.24 629.156 219.625C622.283 217.591 616.52 211.311 616.304 204.142C616.2 200.767 617.252 197.398 616.775 194.056C616.504 192.164 615.752 190.373 614.592 188.855C614.017 188.129 613.385 187.449 612.704 186.821C611.79 185.958 610.829 185.12 609.993 184.205C609.466 183.638 609.006 183.012 608.621 182.34C608.31 181.791 608.058 181.21 607.869 180.607C606.563 176.604 607.752 171.855 606.314 167.806L606.236 167.584C605.694 166.145 604.589 164.706 603.054 164.594C601.519 164.483 600.205 165.759 598.742 166.328C595.677 167.518 592.371 165.49 589.817 163.423C587.262 161.356 584.381 158.995 581.133 159.453C578.984 159.76 577.285 161.226 575.305 161.984C574.858 162.158 574.397 162.291 573.927 162.383C575.602 158.2 578.68 154.732 582.632 152.574C586.585 150.417 591.164 149.704 595.584 150.56C600.004 151.415 603.988 153.784 606.852 157.261C609.717 160.738 611.282 165.105 611.28 169.611C611.282 170.972 611.14 172.33 610.855 173.66C610.888 173.752 610.921 173.837 610.96 173.929C611.718 175.891 612.574 177.906 613.325 179.645L617.016 182.995C617.016 182.995 618.585 184.303 620.937 186.265C626.053 190.582 634.893 198.183 639.453 202.834C643.465 206.942 644.719 222.863 645.098 234.853Z" fill="black"/>
<path d="M575.077 150.034C576.011 148.13 576.475 145.998 577.592 144.193C579.232 141.576 582.094 139.902 585.034 138.888C592.711 136.239 608.934 132.392 613.782 138.888C614.736 140.196 615.527 141.648 616.847 142.551C617.853 143.238 619.068 143.532 620.172 144.049C623.263 145.501 625.236 148.667 626.288 151.898C627.34 155.129 627.653 158.596 628.424 161.926C629.411 166.197 631.142 170.246 632.867 174.269C634.899 179.018 637.055 183.943 640.976 187.299C646.327 191.877 647.509 198.36 652.475 203.383C658.355 209.349 658.166 219.193 655.134 227.01C654.735 228.037 654.285 229.109 654.441 230.202C654.598 231.294 655.408 232.288 656.173 233.158L659.387 236.789C651.782 238.627 643.177 234.65 639.636 227.67C638.545 225.512 637.82 223.026 635.951 221.489C634.279 220.115 632.031 219.788 629.947 219.174C623.073 217.133 617.31 210.847 617.095 203.678C616.99 200.309 618.042 196.94 617.565 193.604C617.3 191.7 616.546 189.897 615.377 188.371C613.58 186.023 610.868 184.447 609.405 181.83C606.928 177.454 608.81 171.77 607.026 167.073C606.478 165.634 605.38 164.195 603.845 164.084C602.309 163.973 600.996 165.248 599.526 165.818C596.468 167.008 593.162 164.987 590.607 162.913C588.053 160.84 585.171 158.485 581.917 158.949C579.768 159.25 578.076 160.715 576.096 161.481C574.632 162.043 571.666 162.547 570.386 161.311C567.681 158.819 573.946 152.362 575.077 150.034Z" fill="#591D4B"/>
<path opacity="0.1" d="M641.453 225.512C640.355 223.353 639.636 220.868 637.768 219.337C636.095 217.963 633.847 217.63 631.757 217.015C624.89 214.981 619.127 208.695 618.905 201.526C618.8 198.157 619.852 194.782 619.382 191.446C619.108 189.553 618.354 187.763 617.193 186.245C615.39 183.897 612.678 182.321 611.221 179.704C608.745 175.335 610.627 169.651 608.836 164.948C608.294 163.515 607.19 162.076 605.661 161.958C604.132 161.841 602.806 163.129 601.342 163.698C598.284 164.889 594.972 162.861 592.424 160.794C589.876 158.727 586.981 156.366 583.734 156.823C581.584 157.131 579.886 158.596 577.912 159.355C576.449 159.917 573.476 160.428 572.195 159.191C569.503 156.575 575.769 150.132 576.893 147.816C577.827 145.906 578.291 143.78 579.415 141.975C579.474 141.877 579.539 141.779 579.605 141.681C578.764 142.378 578.038 143.204 577.455 144.127C576.338 145.932 575.874 148.052 574.94 149.968C573.809 152.284 567.543 158.747 570.242 161.343C571.549 162.586 574.489 162.076 575.952 161.513C577.912 160.748 579.624 159.283 581.774 158.982C585.041 158.518 587.915 160.879 590.464 162.946C593.012 165.013 596.344 167.041 599.389 165.85C600.852 165.281 602.133 163.999 603.701 164.117C605.269 164.235 606.314 165.667 606.883 167.106C608.666 171.803 606.785 177.487 609.261 181.863C610.725 184.434 613.436 186.043 615.233 188.404C616.402 189.93 617.156 191.732 617.422 193.637C617.899 196.973 616.847 200.342 616.951 203.71C617.167 210.905 622.929 217.165 629.803 219.206C631.874 219.821 634.135 220.148 635.807 221.522C637.683 223.059 638.421 225.545 639.492 227.703C643.034 234.682 651.639 238.659 659.244 236.821L657.728 235.108C651.135 235.206 644.465 231.451 641.453 225.512Z" fill="black"/>
<path opacity="0.1" d="M596.409 195.658C595.553 196.966 593.103 203.664 591.058 209.512C589.144 208.767 587.406 204.011 587.406 204.011L597.611 189.477C598.657 190.916 597.971 193.303 596.409 195.658Z" fill="black"/>
<path d="M596.801 195.266C595.945 196.574 593.495 203.272 591.45 209.12C589.536 208.381 587.798 203.619 587.798 203.619L598.003 189.091C599.049 190.523 598.363 192.917 596.801 195.266Z" fill="#DCE7FF"/>
<path d="M537.462 262.09L531.804 244.226C531.737 244.017 531.712 243.796 531.73 243.578C531.749 243.359 531.81 243.146 531.911 242.951C532.011 242.755 532.15 242.582 532.317 242.441C532.485 242.299 532.679 242.192 532.889 242.126C533.31 241.995 533.766 242.035 534.157 242.238C534.549 242.442 534.844 242.792 534.979 243.212L540.638 261.056L540.076 264.791L537.462 262.09Z" fill="#BE8B87"/>
<path opacity="0.1" d="M532.34 242.656C532.762 242.523 533.219 242.562 533.612 242.765C534.006 242.969 534.302 243.32 534.437 243.742L540.095 261.586L539.671 264.386L540.082 264.817L540.644 261.082L534.953 243.238C534.818 242.818 534.523 242.468 534.131 242.264C533.74 242.061 533.284 242.021 532.862 242.152C532.508 242.268 532.202 242.498 531.993 242.807C532.105 242.747 532.22 242.697 532.34 242.656Z" fill="white"/>
<path d="M537.462 262.09L540.638 261.082L540.174 264.144L540.076 264.817L539.148 263.849L537.462 262.09Z" fill="#EFC8C4"/>
<path d="M539.148 263.849C539.203 263.779 539.272 263.722 539.35 263.679C539.396 263.65 539.45 263.635 539.504 263.635C539.558 263.635 539.612 263.65 539.658 263.679C539.702 263.733 539.739 263.792 539.769 263.856C539.812 263.928 539.871 263.99 539.941 264.036C540.011 264.082 540.09 264.113 540.174 264.124L540.076 264.778L539.148 263.849Z" fill="#727A9C"/>
<path d="M531.771 250.571C531.771 250.571 543.12 250.505 540.448 255.339C537.776 260.173 533.601 260.755 533.601 260.755L531.771 250.571Z" fill="#FFB0B1"/>
<path d="M461.188 33.6345H460.698C441.201 33.6345 423.959 43.9629 414.041 59.2037C404.122 43.9629 386.88 33.6345 367.383 33.6345H366.893C352.262 33.7741 338.276 39.6889 327.976 50.0937C317.676 60.4985 311.894 74.5524 311.886 89.2013C311.886 107.392 319.844 133.203 335.362 154.442C364.927 194.912 414.041 230.32 414.041 230.32C414.041 230.32 463.154 194.919 492.713 154.442C508.237 133.203 516.189 107.392 516.189 89.2013C516.181 74.5535 510.399 60.5006 500.101 50.096C489.802 39.6914 475.818 33.7758 461.188 33.6345ZM454.177 157.556C451.957 157.548 449.791 156.867 447.964 155.604C446.136 154.341 444.733 152.554 443.939 150.479H432.283C431.515 150.474 430.768 150.229 430.146 149.779C429.524 149.329 429.058 148.695 428.813 147.967L425.233 137.167L413.903 176.8C413.683 177.563 413.221 178.234 412.587 178.711C411.953 179.189 411.182 179.448 410.388 179.449H410.16C409.332 179.409 408.543 179.086 407.924 178.534C407.306 177.981 406.896 177.233 406.762 176.414L395.086 106.11L386.553 147.712C386.358 148.502 385.903 149.204 385.263 149.705C384.622 150.207 383.832 150.479 383.019 150.479H366.599C366.107 150.499 365.616 150.42 365.155 150.246C364.694 150.072 364.273 149.806 363.918 149.465C363.562 149.124 363.279 148.714 363.086 148.26C362.892 147.807 362.793 147.319 362.793 146.825C362.793 146.332 362.892 145.844 363.086 145.39C363.279 144.937 363.562 144.527 363.918 144.186C364.273 143.844 364.694 143.579 365.155 143.405C365.616 143.23 366.107 143.151 366.599 143.172H380.144L392.231 87.239C392.43 86.412 392.909 85.6797 393.587 85.1673C394.265 84.6549 395.1 84.3942 395.948 84.4297C396.797 84.4653 397.607 84.7949 398.24 85.3621C398.873 85.9294 399.289 86.6992 399.418 87.5399L411.342 159.257L421.496 123.797C421.707 123.051 422.154 122.392 422.77 121.921C423.386 121.449 424.137 121.19 424.913 121.181H424.985C425.752 121.181 426.501 121.424 427.122 121.875C427.744 122.326 428.208 122.962 428.447 123.693L434.922 143.192H443.795C444.426 141.273 445.574 139.566 447.113 138.259C448.651 136.953 450.521 136.097 452.515 135.786C454.508 135.476 456.549 135.723 458.411 136.501C460.274 137.278 461.885 138.556 463.068 140.192C464.251 141.829 464.959 143.761 465.115 145.775C465.27 147.789 464.867 149.807 463.949 151.606C463.031 153.405 461.635 154.915 459.914 155.969C458.193 157.024 456.214 157.582 454.197 157.582L454.177 157.556Z" fill="#6C63FF"/>
</g>
<defs>
<linearGradient id="paint0_linear" x1="232.815" y1="506.852" x2="232.815" y2="104.351" gradientUnits="userSpaceOnUse">
<stop stop-color="#808080" stop-opacity="0.25"/>
<stop offset="0.54" stop-color="#808080" stop-opacity="0.12"/>
<stop offset="1" stop-color="#808080" stop-opacity="0.1"/>
</linearGradient>
<linearGradient id="paint1_linear" x1="145842" y1="303693" x2="145842" y2="97085.3" gradientUnits="userSpaceOnUse">
<stop stop-color="#808080" stop-opacity="0.25"/>
<stop offset="0.54" stop-color="#808080" stop-opacity="0.12"/>
<stop offset="1" stop-color="#808080" stop-opacity="0.1"/>
</linearGradient>
<clipPath id="clip0">
<rect width="722" height="512" fill="white"/>
</clipPath>
</defs>
</svg>
