<svg width="75" height="75" viewBox="0 0 75 75" fill="none" xmlns="http://www.w3.org/2000/svg">
<circle cx="37.5" cy="37.5" r="37.5" fill="url(#paint0_linear)"/>
<path d="M45.628 53.54C42.964 53.54 40.72 52.46 38.896 50.3C37.072 48.14 36.16 44.996 36.16 40.868C36.16 37.82 36.652 35.048 37.636 32.552C38.62 30.032 40.156 27.98 42.244 26.396C44.356 24.788 46.732 23.984 49.372 23.984C52.012 23.984 53.932 24.632 55.132 25.928C56.332 27.2 56.932 28.664 56.932 30.32C56.932 31.976 56.512 33.308 55.672 34.316C54.832 35.3 53.74 35.792 52.396 35.792C51.964 35.792 51.436 35.696 50.812 35.504C51.364 34.928 51.844 34.124 52.252 33.092C52.684 32.036 52.9 30.98 52.9 29.924C52.9 28.868 52.612 27.968 52.036 27.224C51.484 26.456 50.596 26.072 49.372 26.072C47.524 26.072 45.868 26.84 44.404 28.376C42.964 29.888 41.872 31.76 41.128 33.992C40.408 36.2 40.048 38.48 40.048 40.832C40.048 44.144 40.684 46.628 41.956 48.284C43.228 49.916 44.872 50.732 46.888 50.732C48.232 50.732 49.612 50.324 51.028 49.508C52.444 48.692 53.608 47.516 54.52 45.98C54.88 45.98 55.216 46.088 55.528 46.304C55.84 46.52 55.996 46.736 55.996 46.952C54.652 49.496 52.96 51.26 50.92 52.244C49.144 53.108 47.38 53.54 45.628 53.54Z" fill="white"/>
<path d="M34.748 56.068C33.764 56.068 32.972 55.864 32.372 55.456C31.772 55.072 31.316 54.58 31.004 53.98C30.716 53.404 30.416 52.648 30.104 51.712C29.024 52.048 27.908 52.216 26.756 52.216C24.74 52.216 23.156 51.64 22.004 50.488C20.876 49.336 20.312 47.5 20.312 44.98C20.312 42.844 20.696 40.444 21.464 37.78C22.232 35.116 23.348 32.836 24.812 30.94C26.3 29.044 28.052 28.096 30.068 28.096C30.788 28.096 31.412 28.192 31.94 28.384C30.884 29.008 29.864 30.292 28.88 32.236C27.92 34.18 27.14 36.352 26.54 38.752C25.94 41.152 25.64 43.276 25.64 45.124V45.772C25.64 46.18 25.664 46.48 25.712 46.672C26.576 46.456 27.32 46.348 27.944 46.348C29.024 46.348 29.984 46.672 30.824 47.32C32.048 45.736 33.092 43.588 33.956 40.876C34.82 38.14 35.252 35.5 35.252 32.956C35.252 31.468 35.12 30.28 34.856 29.392C34.616 28.48 34.16 27.796 33.488 27.34C32.816 26.884 31.868 26.656 30.644 26.656C28.796 26.656 27.08 27.04 25.496 27.808C23.912 28.552 22.64 29.632 21.68 31.048C20.744 32.44 20.276 34.06 20.276 35.908C20.276 36.556 20.336 37.036 20.456 37.348C20.576 37.636 20.636 37.804 20.636 37.852C19.436 37.852 18.524 37.612 17.9 37.132C17.3 36.652 17 35.884 17 34.828C17 33.172 17.672 31.588 19.016 30.076C20.384 28.564 22.184 27.34 24.416 26.404C26.672 25.468 29.036 25 31.508 25C34.508 25 36.68 25.816 38.024 27.448C39.368 29.08 40.04 31.336 40.04 34.216C40.04 35.992 39.788 37.9 39.284 39.94C38.78 41.956 38.012 43.876 36.98 45.7C35.948 47.524 34.676 49 33.164 50.128C33.788 51.064 34.436 51.784 35.108 52.288C35.78 52.792 36.3921 53 37.4241 53C37.9262 52.172 41.5401 51.048 41.9241 51C41.4681 52.176 37.9241 55 36.98 55.456C36.404 55.912 35.588 56.068 34.748 56.068ZM27.728 49.3C28.256 49.3 28.712 49.168 29.096 48.904C28.616 48.088 27.932 47.68 27.044 47.68C26.66 47.68 26.312 47.728 26 47.824C26.336 48.808 26.912 49.3 27.728 49.3Z" fill="white"/>
<defs>
<linearGradient id="paint0_linear" x1="15.5" y1="8.5" x2="62" y2="67" gradientUnits="userSpaceOnUse">
<stop stop-color="#766EFB"/>
<stop offset="1" stop-color="#DECDD8"/>
</linearGradient>
</defs>
</svg>
